
<svg xmlns="http://www.w3.org/2000/svg" version="1.1" xmlns:xlink="http://www.w3.org/1999/xlink" preserveAspectRatio="none" x="0px" y="0px" width="500px" height="500px" viewBox="0 0 500 500">
<defs>
<linearGradient id="Gradient_1" gradientUnits="userSpaceOnUse" x1="281.1875" y1="36.9375" x2="276.51250000000005" y2="60.3625" spreadMethod="pad">
<stop  offset="0%" stop-color="#590D39"/>

<stop  offset="19.607843137254903%" stop-color="#9C1862"/>

<stop  offset="22.745098039215687%" stop-color="#A01964"/>

<stop  offset="34.11764705882353%" stop-color="#AA1A6C"/>

<stop  offset="73.72549019607843%" stop-color="#BD1D78"/>

<stop  offset="100%" stop-color="#BF1D79"/>
</linearGradient>

<filter id="Filter_1" x="-20%" y="-20%" width="140%" height="140%" color-interpolation-filters="sRGB">
<feColorMatrix in="SourceGraphic" type="matrix" values="1 0 0 0 0 0 1 0 0 0 0 0 1 0 0 0 0 0 0.21 0" result="result1"/>
</filter>

<filter id="Filter_2" x="-20%" y="-20%" width="140%" height="140%" color-interpolation-filters="sRGB">
<feColorMatrix in="SourceGraphic" type="matrix" values="0.57 0 0 0 0.1843137254901961 0 0.57 0 0 0.28627450980392155 0 0 0.57 0 0.37254901960784315 0 0 0 1 0" result="result1"/>
</filter>

<filter id="Filter_3" x="-20%" y="-20%" width="140%" height="140%" color-interpolation-filters="sRGB">
<feColorMatrix in="SourceGraphic" type="matrix" values="0 0 0 0 0.6941176470588235 0 0 0 0 0.8352941176470589 0 0 0 0 0.9019607843137255 0 0 0 1 0" result="result1"/>
</filter>

<g id="Mask_Designs_mlp422_019_ext_ponyville_pool_closeup_ref__RD_Character_194_14_MASK_0_FILL">
<path fill="#FFFFFF" stroke="none" d="
M -84.5 -139.05
L -84.5 19.35 73.9 19.35 73.9 -139.05 -84.5 -139.05 Z"/>
</g>

<g id="Designs_mlp422_019_ext_ponyville_pool_closeup_ref_RD_Shadow_0_Layer0_0_FILL">
<path fill="#000000" stroke="none" d="
M 46.4 155.05
Q 68.65 152.95 68.65 149.95 68.65 146.95 46.4 144.8 24.15 142.7 -7.4 142.7 -38.9 142.7 -61.2 144.8 -83.45 146.95 -83.45 149.95 -83.45 152.95 -61.2 155.05 -38.9 157.2 -7.4 157.2 24.15 157.2 46.4 155.05 Z"/>
</g>

<g id="Designs_mlp422_019_ext_ponyville_pool_closeup_ref_RD_Wing_front_12_Layer0_0_FILL">
<path fill="#9EDBF8" stroke="none" d="
M 7.8 -16.65
Q 7.6408203125 -17.4546875 7.25 -18.4 6.0384765625 -21.456640625 2.35 -21.65 -1.0849609375 -20.946484375 -3.65 -17.1 -3.751953125 -16.9533203125 -3.85 -16.8
L -3.5 -17.35
Q -3.8908203125 -16.7193359375 -3.9 -16.65 -5.8 -9.45 -4.1 0.55 -2.7994140625 8.2634765625 1.2 15 5.847265625 13.23984375 7.25 10.8 8.694921875 8.34921875 8.55 6.95 8.4599609375 5.60703125 8.35 5.1 8.2517578125 4.7037109375 8.1 4.3
L 8.05 4.05 8.2 3.85
Q 12.810546875 -1.9095703125 12.75 -5.7 12.769921875 -6.2068359375 12.65 -6.7 12.652734375 -6.8107421875 12.6 -6.95 11.581640625 -10.94921875 7.7 -12.75
L 7.2 -13 7.45 -13.45
Q 8.011328125 -14.373828125 7.95 -15.65 7.91171875 -16.125390625 7.8 -16.65
M 8.4 10.6
Q 8.103125 11.1216796875 7.7 11.55 11.36484375 9.4568359375 12 5.2
L 9.45 5.85
Q 9.783203125 8.479296875 8.4 10.6
M 16.35 -6.6
L 13.75 -5.95
Q 13.999609375 -1.87265625 9.15 4.25 9.2388671875 4.5572265625 9.3 4.85
L 12.1 4.15 12.1 3.8 12.25 3.55
Q 15.9728515625 -2.5984375 16.35 -6.6
M 12.15 -13.45
L 12 -13.9
Q 11.7322265625 -14.685546875 11.2 -15.65
L 8.95 -15.65
Q 9.0314453125 -14.3921875 8.55 -13.45 12.4841796875 -11.3958984375 13.55 -7.2 13.6072265625 -7.059765625 13.6 -6.95
L 16.4 -7.65
Q 16.419140625 -7.9025390625 16.4 -8.15
L 16.4 -8.2
Q 15.9578125 -11.2251953125 12.55 -13.2
L 12.15 -13.45
M 10.6 -16.65
Q 10.4681640625 -16.8955078125 10.3 -17.15
L 10.3 -17.2
Q 9.0291015625 -19.246875 7.25 -20.45 7.8427734375 -19.69609375 8.2 -18.75 8.665234375 -17.6150390625 8.85 -16.65
L 10.6 -16.65 Z"/>

<path fill="#6DABDD" stroke="none" d="
M 12.4 -18.55
L 12.4 -18.5
Q 8.9595703125 -24.0552734375 2.55 -24.5
L 2.45 -24.5 2.3 -24.5
Q -2.771484375 -23.6296875 -3.65 -17.1 -1.0849609375 -20.946484375 2.35 -21.65 6.0384765625 -21.456640625 7.25 -18.4 7.6408203125 -17.4546875 7.8 -16.65 7.91171875 -16.125390625 7.95 -15.65 8.011328125 -14.373828125 7.45 -13.45
L 7.2 -13 7.7 -12.75
Q 11.581640625 -10.94921875 12.6 -6.95 12.652734375 -6.8107421875 12.65 -6.7 12.769921875 -6.2068359375 12.75 -5.7 12.810546875 -1.9095703125 8.2 3.85
L 8.05 4.05 8.1 4.3
Q 8.2517578125 4.7037109375 8.35 5.1 8.4599609375 5.60703125 8.55 6.95 8.694921875 8.34921875 7.25 10.8 5.847265625 13.23984375 1.2 15 14.0615234375 14.483984375 14.55 4.55 19.44765625 -3.600390625 18.9 -8.45
L 18.9 -8.45
Q 18.451171875 -12.4865234375 14.25 -15.1 13.6716796875 -16.5984375 12.4 -18.55
M 10.3 -17.15
Q 10.4681640625 -16.8955078125 10.6 -16.65
L 8.85 -16.65
Q 8.665234375 -17.6150390625 8.2 -18.75 7.8427734375 -19.69609375 7.25 -20.45 9.0291015625 -19.246875 10.3 -17.2
L 10.3 -17.15
M 12 -13.9
L 12.15 -13.45 12.55 -13.2
Q 15.9578125 -11.2251953125 16.4 -8.2
L 16.4 -8.15
Q 16.419140625 -7.9025390625 16.4 -7.65
L 13.6 -6.95
Q 13.6072265625 -7.059765625 13.55 -7.2 12.4841796875 -11.3958984375 8.55 -13.45 9.0314453125 -14.3921875 8.95 -15.65
L 11.2 -15.65
Q 11.7322265625 -14.685546875 12 -13.9
M 13.75 -5.95
L 16.35 -6.6
Q 15.9728515625 -2.5984375 12.25 3.55
L 12.1 3.8 12.1 4.15 9.3 4.85
Q 9.2388671875 4.5572265625 9.15 4.25 13.999609375 -1.87265625 13.75 -5.95
M 7.7 11.55
Q 8.103125 11.1216796875 8.4 10.6 9.783203125 8.479296875 9.45 5.85
L 12 5.2
Q 11.36484375 9.4568359375 7.7 11.55 Z"/>
</g>

<g id="Designs_mlp422_019_ext_ponyville_pool_closeup_ref_RD_Tail_1_Layer1_0_FILL">
<path fill="#1E98D5" stroke="none" d="
M 3.25 -5.95
Q 2.0869140625 -5.4890625 0.9 -5
L 0.35 -4.7
Q 0.124609375 -4.5984375 -0.1 -4.5 -10.3650390625 1.93671875 -12.8 11.15 -14.205859375 22.166015625 -8.85 28.2 -3.4947265625 34.2314453125 -3.35 34.2 -3.201171875 34.215234375 -3.15 34.25
L -1.4 35.65 -1.4 35.65 -0.35 36.5
Q -0.1826171875 36.65234375 -0.05 36.8 1.3154296875 38.083203125 2.55 39.6 3.5626953125 40.778515625 4.5 42.1 11.65 52.25 14.55 68.2 17.6 84.9 15.25 105.2
L 14.8 109.5 18.45 104.65
Q 21.073046875 99.731640625 22.4 95.35 21.0046875 125.57265625 32.75 144.95 38.65 154.7 44.85 158.35
L 42.85 154.35
Q 38.7595703125 146.7177734375 38.2 122.35 44.538671875 135.9419921875 53.85 146.05
L 53.85 146.1
Q 56.4 148.95 59.75 151.95 65.4 157.05 73.7 161.25
L 79.75 162.85 76.35 160.15
Q 70.45 155.65 67.05 148.45 78 156.1 84.6 158.35 92.25 160.9 103.4 159.95
L 108.3 158.7
Q 87.75 156.6 77.05 139.35 68.05 124.85 66.75 101.1
L 66.75 101.05
Q 66.7755859375 101.09296875 66.8 101.1 73.3 117.35 80.9 124.75 84.65 128.45 87.15 128.9
L 84.9 125.1
Q 80.05 117.35 77.8 102.85 77.15 98.4 74.2 70.65 72.05 50.1 68.9 38.25 65.46015625 25.1384765625 59.75 17.4
L 59.8 17.4
Q 71.25 21.5 77.6 33.05
L 79.8 36.8
Q 79.75 32.2 78.8 28.8 78.25 26.55 76.3 20.45 74.6 14.35 68.35 7.15 62.5 0.5 57.5 -2.05 47.8 -7 39.8 -8.85 30 -11.1 18.8 -9.9 11.3923828125 -9.091796875 4 -6.25 3.62421875 -6.1046875 3.25 -5.95
M 5.05 -3.45
Q 12.080078125 -6.14609375 19.1 -6.9 41.9912109375 -9.39296875 58.05 2.3 69.61875 10.740625 75.35 24.7 67.414453125 15.50078125 56.15 13.25 55.955078125 13.217578125 55.7 13.15
L 51.6 12.3 51.6 12.3 51.45 12.55 51.4 12.6
Q 53.0111328125 14.0390625 54.6 15.45 54.6251953125 15.4748046875 54.65 15.5 55.015625 15.8626953125 55.35 16.25 61.89140625 23.3197265625 66 38.95 69.01953125 50.3953125 71.2 70.95 74.1142578125 98.7640625 74.8 103.25 76.066015625 111.175 77.75 117 70.25 105.35 66.65 91.5
L 65.55 87.3
Q 66.6 66.15 62.75 46.5 58.9 26.8 51.75 16.9 50.320703125 14.9208984375 48.85 13.1 45.6119140625 9.13203125 42.2 6.05 36.7908203125 1.1892578125 31 -1.3 19.887890625 -6.093359375 5.05 -3.45
M 40.65 12.85
Q 42.080078125 14.3287109375 43.5 16 44.209375 16.8046875 44.9 17.65 57.1 32.7 58.1 76.6 57.95234375 82.4544921875 57.85 87.85 57.7173828125 94.40078125 57.65 100.25
L 57.6 100.25
Q 57.5296875 107.5875 57.55 113.85 57.75 124.5 58.35 128.65 59.15 134.65 61.85 140.8
L 61.8 140.8 62.6 144.65
Q 63.4078125 149.2021484375 66.7 153.75 64.126171875 151.810546875 61.75 149.65 60.8064453125 148.8244140625 59.9 147.95 58.35 146.8 57.55 146.25 56.2140625 145.2109375 56.05 144.05
L 56.05 144
Q 54.36875 142.2017578125 52.8 140.25 49.8876953125 136.6408203125 47.3 132.6 41.927734375 124.3056640625 37.95 114.25
L 36.8 111.5
Q 36.7005859375 111.066015625 36.55 110.65
L 36.5 110.65 36.35 110.25 36.25 125.25
Q 36.25 141.15 37.1 145.75 25.8935546875 125.3841796875 24.75 87.7 24.8380859375 87.231640625 24.85 86.8 26.15 74.7 25.15 61.95
L 25.05 60.5 25 60.45 22.5 82.9
Q 22.43671875 83.35234375 22.25 84.05 21.5935546875 87.24140625 19.05 95.55 19.844921875 80.695703125 17.45 67.6 14.4072265625 50.90390625 6.9 40.3 3.8123046875 35.94609375 0.2 33 -5.784375 28.15 -8 23.25 -10.205078125 18.175 -9.9 13.05 -9.749609375 9.920703125 -7.75 6.35 -3.9236328125 0.2525390625 2.45 -0.25 9.2802734375 -0.8783203125 17.95 0.6 25.9 1.95 31.75 5.55 33.0873046875 6.3625 34.4 7.35 34.81171875 7.6349609375 35.2 7.9
L 40.65 12.85 Z"/>

<path fill="#F37033" stroke="none" d="
M 29.5 34.1
Q 29.4931640625 34.2 29.45 34.25 19.2271484375 15.4181640625 1.75 14.25 1.6203125 14.241796875 -9.9 13.05 -10.205078125 18.175 -8 23.25 12.3125 29.0822265625 19.55 39.35 22.3142578125 43.303125 24.45 48.15 25.418359375 50.3486328125 26.3 52.65 26.2755859375 52.8263671875 26.25 52.95 30.3658203125 63.876171875 32.65 77.5 33.334765625 81.525390625 34.1 87.85 35.1611328125 96.765625 36.35 110.25
L 36.5 110.65 36.55 110.65
Q 36.7005859375 111.066015625 36.8 111.5
L 37.95 114.25
Q 41.927734375 124.3056640625 47.3 132.6 43.75 124.2 41.9 110.75 41.6423828125 108.8490234375 41.35 106.35
L 41.4 106.3
Q 40.6763671875 99.3611328125 39.85 87.85 39.7806640625 86.7220703125 39.7 85.55 38.55 68.6 37.35 60.35 35.45 47.05 31.65 38.7 30.6498046875 36.4900390625 29.55 34.45 29.594140625 34.2212890625 29.55 34.15 29.551953125 34.1326171875 29.5 34.1 Z"/>

<path fill="#EE4144" stroke="none" d="
M 0.2 33
Q 3.8123046875 35.94609375 6.9 40.3 14.4072265625 50.90390625 17.45 67.6 19.844921875 80.695703125 19.05 95.55 21.5935546875 87.24140625 22.25 84.05 22.43671875 83.35234375 22.5 82.9
L 25 60.45 25.05 60.5 25.15 61.95
Q 26.15 74.7 24.85 86.8 24.8380859375 87.231640625 24.75 87.7 25.8935546875 125.3841796875 37.1 145.75 36.25 141.15 36.25 125.25
L 36.35 110.25
Q 35.1611328125 96.765625 34.1 87.85 33.334765625 81.525390625 32.65 77.5 30.3658203125 63.876171875 26.25 52.95 26.2755859375 52.8263671875 26.3 52.65 25.418359375 50.3486328125 24.45 48.15 22.3142578125 43.303125 19.55 39.35 12.3125 29.0822265625 -8 23.25 -5.784375 28.15 0.2 33 Z"/>

<path fill="#FDF6AE" stroke="none" d="
M 28 12.3
Q 27.7197265625 12.1080078125 27.45 11.9
L 26.85 11.55
Q 16.2 4.8232421875 -7.75 6.35 -9.749609375 9.920703125 -9.9 13.05 1.6203125 14.241796875 1.75 14.25 19.2271484375 15.4181640625 29.45 34.25 29.4931640625 34.2 29.5 34.1 29.551953125 34.1326171875 29.55 34.15 29.594140625 34.2212890625 29.55 34.45 30.6498046875 36.4900390625 31.65 38.7 35.45 47.05 37.35 60.35 38.55 68.6 39.7 85.55 39.7806640625 86.7220703125 39.85 87.85 40.6763671875 99.3611328125 41.4 106.3
L 41.35 106.35
Q 41.6423828125 108.8490234375 41.9 110.75 43.75 124.2 47.3 132.6 49.8876953125 136.6408203125 52.8 140.25 54.36875 142.2017578125 56.05 144 49.25 129 48.6 112.8 48.580078125 107.182421875 48.55 102.3 48.575390625 102.312109375 48.6 102.3 48.5201171875 82.6513671875 48.4 75.2 48.05 52.75 44.15 39.2 40.8 27.637890625 35.85 20.4 35.3244140625 19.6314453125 34.75 18.9
L 34.65 18.7
Q 34.519140625 18.549609375 34.5 18.5 34.290625 18.2564453125 34.05 18
L 29.2 13.15
Q 28.787109375 12.85859375 28.35 12.55 28.1748046875 12.4267578125 28 12.3 Z"/>

<path fill="#62BC4D" stroke="none" d="
M 43.5 16
Q 42.080078125 14.3287109375 40.65 12.85
L 35.2 7.9
Q 34.81171875 7.6349609375 34.4 7.35 33.0873046875 6.3625 31.75 5.55 25.9 1.95 17.95 0.6 9.2802734375 -0.8783203125 2.45 -0.25 -3.9236328125 0.2525390625 -7.75 6.35 16.2 4.8232421875 26.85 11.55
L 27.45 11.9
Q 27.7197265625 12.1080078125 28 12.3 28.1748046875 12.4267578125 28.35 12.55 28.787109375 12.85859375 29.2 13.15
L 34.05 18
Q 34.290625 18.2564453125 34.5 18.5 34.519140625 18.549609375 34.65 18.7
L 34.75 18.9
Q 35.3244140625 19.6314453125 35.85 20.4 40.8 27.637890625 44.15 39.2 48.05 52.75 48.4 75.2 48.5201171875 82.6513671875 48.6 102.3 48.575390625 102.312109375 48.55 102.3 48.580078125 107.182421875 48.6 112.8 49.25 129 56.05 144
L 56.05 144.05
Q 56.2140625 145.2109375 57.55 146.25 58.35 146.8 59.9 147.95 60.8064453125 148.8244140625 61.75 149.65 64.126171875 151.810546875 66.7 153.75 63.4078125 149.2021484375 62.6 144.65
L 61.8 140.8 61.85 140.8
Q 59.15 134.65 58.35 128.65 57.75 124.5 57.55 113.85 57.5296875 107.5875 57.6 100.25
L 57.65 100.25
Q 57.7173828125 94.40078125 57.85 87.85 57.95234375 82.4544921875 58.1 76.6 57.1 32.7 44.9 17.65 44.209375 16.8046875 43.5 16 Z"/>

<path fill="#662F89" stroke="none" d="
M 19.1 -6.9
Q 12.080078125 -6.14609375 5.05 -3.45 19.887890625 -6.093359375 31 -1.3 36.7908203125 1.1892578125 42.2 6.05 45.6119140625 9.13203125 48.85 13.1 50.320703125 14.9208984375 51.75 16.9 58.9 26.8 62.75 46.5 66.6 66.15 65.55 87.3
L 66.65 91.5
Q 70.25 105.35 77.75 117 76.066015625 111.175 74.8 103.25 74.1142578125 98.7640625 71.2 70.95 69.01953125 50.3953125 66 38.95 61.89140625 23.3197265625 55.35 16.25 55.015625 15.8626953125 54.65 15.5 54.6251953125 15.4748046875 54.6 15.45 53.0111328125 14.0390625 51.4 12.6
L 51.45 12.55 51.6 12.3 51.6 12.3 55.7 13.15
Q 55.955078125 13.217578125 56.15 13.25 67.414453125 15.50078125 75.35 24.7 69.61875 10.740625 58.05 2.3 41.9912109375 -9.39296875 19.1 -6.9 Z"/>
</g>

<g id="Designs_mlp422_019_ext_ponyville_pool_closeup_ref_RD_FrontLeg_3_4_hoof_4_Layer0_0_FILL">
<path fill="#9EDBF8" stroke="none" d="
M -1.1 -16.95
Q -8.73125 -16.39453125 -12.25 -11.95 -15.71796875 -7.4599609375 -18.15 -2.6 -20.5228515625 2.2943359375 -23.25 8.3 -25.98203125 14.3607421875 -20.65 15.55 -15.3279296875 16.747265625 -2.15 16.5 11.034765625 16.2953125 14.15 12.85 17.257421875 9.4 17.35 1.05 17.5083984375 -7.2515625 12.05 -12.4 6.5890625 -17.534375 -1.1 -16.95 Z"/>
</g>

<g id="Designs_mlp422_019_ext_ponyville_pool_closeup_ref_RD_KneePatch_1_Layer0_0_FILL">
<path fill="#6DABDD" stroke="none" d="
M 10.75 -8.3
L 10.75 -8.45
Q 10.999609375 -9.6171875 11 -10.9 11.0111328125 -16.75078125 6.7 -21.15 2.4033203125 -25.5216796875 -3.55 -25.85 -9.52421875 -26.1814453125 -13.85 -22.55 -18.2634765625 -18.8869140625 -18.25 -13.75
L -18.25 -13.7
Q -18.333203125 -9.8595703125 -15.45 -3.75
L -15.4 -3.65 -15.4 -3.6
Q -12.6767578125 2.0408203125 -9.8 10.1
L -9.75 10.2
Q -9.74140625 10.22421875 -9.75 10.25
L -9.75 10.25
Q -6.684765625 18.7166015625 -4.1 21.8
L -4.05 21.85
Q -1.2443359375 25.3462890625 3.45 25.6
L 3.5 25.6
Q 8.171875 25.7728515625 11.55 22.6 14.949609375 19.4423828125 15.4 15.75 15.955859375 12.0994140625 13.1 9.2 8.4591796875 3.042578125 10.65 -7.8 10.721875 -8.034375 10.75 -8.3 Z"/>
</g>

<g id="Designs_mlp422_019_ext_ponyville_pool_closeup_ref_RD_HindLeg_3_4rear_lower_0_Layer1_0_FILL">
<path fill="#9EDBF8" stroke="none" d="
M 7.6 6.9
Q 17.0154296875 -1.388671875 11.5 -5.15 1.836328125 -8.4703125 -5.65 -3.6 -13.0958984375 2.169140625 -8.9 12.2 -5.18671875 19.70546875 7.6 6.9 Z"/>
</g>

<g id="Designs_mlp422_019_ext_ponyville_pool_closeup_ref_RD_HindLeg_3_4rear_lower_0_Layer0_0_FILL">
<path fill="#9EDBF8" stroke="none" d="
M -9.5 10.55
Q -1.994921875 37.8923828125 -10.25 65.05
L 26 63.3
Q 27.7787109375 27.4462890625 13 -3.6
L -9.5 10.55 Z"/>
</g>

<g id="Designs_mlp422_019_ext_ponyville_pool_closeup_ref_RD_HindLeg_3_4_top_3_Layer1_0_FILL">
<path fill="#6DABDD" stroke="none" d="
M -19.7 43.45
Q -19.7474609375 43.891015625 -19.8 44.3
L -19.65 44.3
Q -19.6541015625 43.8923828125 -19.7 43.45
M 0.85 -4.4
L 0.85 -4.4
Q -8.440625 -7.578515625 -18.8 -4.85 -20.7306640625 -4.3076171875 -22.7 -3.6 -35.693359375 1.456640625 -37.3 12.75 -36.67265625 13.8740234375 -36.05 14.95 -35.9734375 15.0919921875 -35.9 15.2
L -35.5 15.95
Q -32.348046875 1.869921875 -18.8 -1.8 -4.6494140625 -5.201171875 3.15 0.8 4.996875 2.69765625 6.85 5.45 8.5537109375 7.9505859375 9.85 11.55 10.773828125 14.0306640625 11.95 18.6 13.480078125 24.059375 14 30.65 14.6548828125 37.772265625 13.95 44.3
L 16.5 44.3
Q 17.1921875 37.8173828125 16.9 31 16.514453125 22.81796875 14.85 16.7 12.33671875 7.5259765625 8.9 2.55 6.02890625 -1.5513671875 3.15 -3.35 2.012890625 -4.0341796875 0.85 -4.4
L 0.85 -4.4 Z"/>

<path fill="#9EDBF8" stroke="none" d="
M 6.85 5.45
Q 4.996875 2.69765625 3.15 0.8 -4.6494140625 -5.201171875 -18.8 -1.8 -32.348046875 1.869921875 -35.5 15.95
L -35.9 15.2
Q -41.54375 35.5021484375 -19.7 43.4
L -19.7 43.45
Q -19.6541015625 43.8923828125 -19.65 44.3
L 13.95 44.3
Q 14.6548828125 37.772265625 14 30.65 13.480078125 24.059375 11.95 18.6 10.773828125 14.0306640625 9.85 11.55 8.5537109375 7.9505859375 6.85 5.45 Z"/>
</g>

<g id="Designs_mlp422_019_ext_ponyville_pool_closeup_ref_RD_HindLeg_3_4_top_3_Layer0_0_FILL">
<path fill="#6DABDD" stroke="none" d="
M 8.7 79.1
L 8.7 79.1
Q -3.7240234375 82.317578125 -15.9 55.05 -20.4896484375 46.2076171875 -20.85 37.15 -20.8546875 36.330078125 -20.85 35.45
L -20.85 35.4
Q -22.584375 41.745703125 -21.75 46.8 -20.8296875 51.911328125 -17.95 57.6
L -17.95 57.6
Q -11.971484375 69.1169921875 -6.05 75 -5.2890625 76.075390625 -4.35 77.05
L -4.35 77
Q -0.276953125 80.9404296875 5.2 80.6 7.4673828125 80.5080078125 8.7 79.1
M 14.55 32.3
Q 14.936328125 39.9142578125 12.65 49.15 10.4171875 58.4453125 9.3 62.55 8.17265625 66.672265625 9.1 73.05 9.75390625 77.3060546875 8.75 79.05 9.4486328125 78.3134765625 9.8 77.2 9.9109375 76.9609375 9.95 76.7 10.304296875 75.502734375 10.2 71.5 10.1513671875 67.5421875 11.45 63 12.7974609375 58.489453125 15.1 49.55 17.4509765625 40.6375 17.45 33.45 17.5064453125 26.2955078125 16.1 20.75 15.6138671875 18.894921875 14.45 15.7
L 10.9 14.4
Q 12.36328125 19.052734375 13 21.7 14.323046875 26.6453125 14.55 32.3 Z"/>

<path fill="#9EDBF8" stroke="none" d="
M 12.65 49.15
Q 14.936328125 39.9142578125 14.55 32.3 14.323046875 26.6453125 13 21.7 12.36328125 19.052734375 10.9 14.4
L -8.9 17.15 -20.85 35.45
Q -20.8546875 36.330078125 -20.85 37.15 -20.4896484375 46.2076171875 -15.9 55.05 -3.7240234375 82.317578125 8.7 79.1
L 8.7 79.1 8.75 79.1
Q 8.764453125 79.1033203125 8.75 79.05 9.75390625 77.3060546875 9.1 73.05 8.17265625 66.672265625 9.3 62.55 10.4171875 58.4453125 12.65 49.15 Z"/>
</g>

<g id="Designs_mlp422_019_ext_ponyville_pool_closeup_ref_RD_KneePatch_0_Layer0_0_FILL">
<path fill="#9EDBF8" stroke="none" d="
M 6.95 -3.8
Q 7.6271484375 -8.4921875 7.65 -8.75
L 7.65 -8.75
Q 7.6830078125 -8.7876953125 7.7 -8.85 7.850390625 -9.7474609375 7.85 -10.75 7.8390625 -15.39921875 4.4 -18.9 0.946484375 -22.4283203125 -3.85 -22.7 -8.6259765625 -22.9685546875 -12.1 -20.1 -15.376171875 -17.3716796875 -15.4 -13.55
L -15.4 -13.55
Q -15.40625 -10.530078125 -12.6 -4.2
L -12.4 -3.7
Q -12.324609375 -3.590625 -12.3 -3.5 -12.2001953125 -3.3171875 -12.15 -3.15 -12.0654296875 -3.0400390625 -12 -2.95
L -12 -2.9 -11.95 -2.8
Q -9.565234375 2.4005859375 -7.1 9.35 -7.0333984375 9.4712890625 -7.05 9.6 -4.2322265625 17.2533203125 -1.9 20.1
L -1.9 20.1
Q 0.112890625 22.6044921875 3.45 22.75 6.435546875 22.852734375 8.7 21.1
L 8.7 21.15
Q 19.876171875 11.2931640625 12.45 5.8 11.055859375 5.381640625 9.7 4.45 9.7404296875 4.5390625 9.75 4.6 8.476171875 3.9505859375 7.75 2.7 6.5830078125 1.1353515625 6.75 -1.95 6.7810546875 -2.8294921875 6.9 -3.8
L 6.95 -3.8 Z"/>
</g>

<g id="Designs_mlp422_019_ext_ponyville_pool_closeup_ref_RD_Torso_0_Layer0_0_FILL">
<path fill="#6DABDD" stroke="none" d="
M 23.2 -25.3
L 23.15 -25.3
Q 13.6134765625 -36.3685546875 0.1 -36.35 -13.413671875 -36.3685546875 -23 -25.3
L -23 -25.3
Q -33.85 -12.65 -33.5 1.85 -33 18.5 -26.15 26.5 -21.66640625 31.7732421875 -13.9 34.5 -7.2111328125 36.9048828125 0.1 36.9 17.13203125 36.8990234375 25.65 26.85 28.45 23.6 30.65 17.8 33.45 10.3 33.7 1.85 34.05 -12.65 23.2 -25.3
M 20.9 -23.35
L 20.9 -23.35 20.9 -23.35
Q 30.45 -12.15 30.7 1.85 30.95 16.1 23.35 24.9 15.568359375 33.90078125 0.1 33.9 -6.6890625 33.8951171875 -12.9 31.65 -19.83359375 29.2265625 -23.85 24.55 -30.2 17 -30.5 1.15 -30.7 -11.65 -20.7 -23.35
L -20.75 -23.35 -20.7 -23.35
Q -12.069921875 -33.331640625 0.1 -33.35 12.2779296875 -33.331640625 20.9 -23.35 Z"/>

<path fill="#F4B6D1" stroke="none" d="
M -20.7 -23.35
L -20.75 -23.35 -20.7 -23.35 -20.7 -23.35
M 20.9 -23.35
L 20.9 -23.35 20.9 -23.35 20.9 -23.35 Z"/>

<path fill="#9EDBF8" stroke="none" d="
M 20.9 -23.35
L 20.9 -23.35
Q 12.2779296875 -33.331640625 0.1 -33.35 -12.069921875 -33.331640625 -20.7 -23.35
L -20.7 -23.35
Q -30.7 -11.65 -30.5 1.15 -30.2 17 -23.85 24.55 -19.83359375 29.2265625 -12.9 31.65 -6.6890625 33.8951171875 0.1 33.9 15.568359375 33.90078125 23.35 24.9 30.95 16.1 30.7 1.85 30.45 -12.15 20.9 -23.35 Z"/>
</g>

<g id="Designs_mlp422_019_ext_ponyville_pool_closeup_ref_RD_Neck_0_Layer0_0_FILL">
<path fill="#F4B6D1" stroke="none" d="
M -16.8 24.2
L -16.85 24.15 -16.85 24.2 -16.8 24.2
M -7.65 -62.9
L -7.65 -62.85 -7.15 -62.85 -7.65 -62.9
M 19 -62.95
L 19 -63 18.5 -62.95 19 -62.95 Z"/>

<path fill="#9EDBF8" stroke="none" d="
M 18.5 -61.45
L 18.5 -62.95 19 -63
Q 18.7365234375 -73.6224609375 5.75 -75.15 -6.9525390625 -74.7279296875 -7.65 -62.9
L -7.15 -62.85 -7.2 -61.35
Q -7.595703125 -52.617578125 -12.65 -4.3 -13.6 4.88671875 -14.3 12.55
L -14.3 12.6 -14.4 13.45 -14.4 13.55 -14.45 14.05 -14.45 14.1
Q -14.8998046875 18.7240234375 -16.8 24.2
L -16.85 24.2
Q -18.1765625 41.696484375 -17.7 48.4 -17.6 49.75 -16.7 52.9 -15.85 55.95 -15.3 56.75 -12.4 61.15 -6.4 63.5 -1.25 65.5 4.4 65.5 17.65 65.5 23.6 58.6 24.3 57.75 25.2 53.7 25.9 50.5 26.15 48.45 26.825390625 41.9896484375 25.85 24.8
L 25.9 24.8
Q 24.05 19.3998046875 23.75 14.95
L 23.75 14.8 23.65 13.45
Q 23.049609375 5.3115234375 22.2 -4.55 18.2919921875 -50.1962890625 18.5 -61.45 Z"/>

<path fill="#6DABDD" stroke="none" d="
M 6 -77.15
Q 5.94921875 -77.1552734375 5.85 -77.15 -8.9501953125 -76.7466796875 -9.7 -62.95
L -10.15 -63 -10.2 -61.5
Q -10.604296875 -52.782421875 -15.65 -4.6 -16.6001953125 4.6134765625 -17.3 12.3
L -17.45 13.8
Q -17.4556640625 13.8580078125 -17.45 13.9 -17.90390625 18.52734375 -16.8 24.2 -14.8998046875 18.7240234375 -14.45 14.1
L -14.45 14.05 -14.4 13.55 -14.4 13.45 -14.3 12.6 -14.3 12.55
Q -13.6 4.88671875 -12.65 -4.3 -7.595703125 -52.617578125 -7.2 -61.35
L -7.15 -62.85 -7.65 -62.85 -7.65 -62.9
Q -6.9525390625 -74.7279296875 5.75 -75.15 18.7365234375 -73.6224609375 19 -63
L 19 -62.95 18.5 -62.95 18.5 -61.45
Q 18.2919921875 -50.1962890625 22.2 -4.55 23.049609375 5.3115234375 23.65 13.45
L 23.75 14.8 23.75 14.95
Q 24.05 19.3998046875 25.9 24.8 27.0529296875 19.2484375 26.75 14.85 26.7537109375 14.8037109375 26.75 14.75
L 26.75 14.7 26.65 13.25
Q 26.0501953125 5.08828125 25.2 -4.8 21.3080078125 -50.2029296875 21.5 -61.4
L 21.5 -62.9 21.05 -62.9
Q 20.9736328125 -75.3884765625 6 -77.15 Z"/>
</g>

<g id="Designs_mlp422_019_ext_ponyville_pool_closeup_ref_RD_FrontLeg_3_4_hoof_10_Layer0_0_FILL">
<path fill="#6DABDD" stroke="none" d="
M 16.35 -7.2
Q 13.0224609375 -13.9443359375 6.05 -16.8 -0.9236328125 -19.6390625 -7.4 -16.8
L -7.45 -16.8
Q -13.68984375 -14.0404296875 -16.05 -7.45
L -16.05 -7.45
Q -18.6091796875 -2.4802734375 -19.65 4.6
L -19.65 4.65
Q -20.2140625 7.7609375 -19.4 9.6 -18.7173828125 11.1390625 -16.7 12.45 -14.13828125 14.2466796875 -9.15 15 -4.1478515625 15.7416015625 2.4 15.95 8.9458984375 16.1515625 13.35 14.35 17.80078125 12.5974609375 18.1 12 18.458984375 11.3896484375 18.5 10.3 18.5712890625 9.2390625 18.25 0.4
L 18.25 0.35
Q 18.251953125 0.3330078125 18.25 0.3
L 18.25 0.25
Q 18.09140625 -3.49609375 16.35 -7.2
M 5.25 -14.4
Q 11.223828125 -11.9392578125 14.05 -6.15
L 14.05 -6.2
Q 15.527734375 -3.0994140625 15.65 0.05 15.680078125 0.1130859375 15.65 0.15 15.68125 0.34609375 15.7 0.5
L 15.8 0.5
Q 15.81640625 1.0333984375 15.8 1.5 16.07109375 10.5216796875 15.15 10.65 12.3951171875 12.341015625 8.3 12.7 4.20625 13.08828125 0 13.05 -4.1990234375 13.030859375 -8.05 12.55 -11.8623046875 12.1009765625 -15.85 9.75 -17.5041015625 8.816796875 -16.85 5.2 -16.2283203125 1.2962890625 -15.15 -2.2 -14.535546875 -4.08125 -13.8 -5.85 -13.790234375 -5.888671875 -13.8 -5.95 -13.7259765625 -6.0068359375 -13.7 -6.1
L -13.7 -6.15
Q -11.7255859375 -11.9853515625 -6.25 -14.4
L -6.25 -14.4
Q -0.7126953125 -16.8146484375 5.25 -14.4 Z"/>

<path fill="#9EDBF8" stroke="none" d="
M 14.05 -6.15
Q 11.223828125 -11.9392578125 5.25 -14.4 -0.7126953125 -16.8146484375 -6.25 -14.4
L -6.25 -14.4
Q -11.7255859375 -11.9853515625 -13.7 -6.15
L -13.7 -6.1
Q -13.7259765625 -6.0068359375 -13.8 -5.95 -13.790234375 -5.888671875 -13.8 -5.85 -14.535546875 -4.08125 -15.15 -2.2 -16.2283203125 1.2962890625 -16.85 5.2 -17.5041015625 8.816796875 -15.85 9.75 -11.8623046875 12.1009765625 -8.05 12.55 -4.1990234375 13.030859375 0 13.05 4.20625 13.08828125 8.3 12.7 12.3951171875 12.341015625 15.15 10.65 16.07109375 10.5216796875 15.8 1.5 15.81640625 1.0333984375 15.8 0.5
L 15.7 0.5
Q 15.68125 0.34609375 15.65 0.15 15.680078125 0.1130859375 15.65 0.05 15.527734375 -3.0994140625 14.05 -6.2
L 14.05 -6.15 Z"/>
</g>

<g id="Designs_mlp422_019_ext_ponyville_pool_closeup_ref_RD_FrontLeg_3_4_upper_9_Layer0_0_FILL">
<path fill="#6DABDD" stroke="none" d="
M 11.75 13.2
Q 11.144921875 1.025390625 10.15 1.25 10.139453125 1.287109375 10.1 1.3 9.6564453125 1.7580078125 9.65 2.35
L 8.65 97.85 8.65 98.4
Q 8.6419921875 99.04921875 9.05 99.5 9.508203125 99.9439453125 10.1 99.95 10.749609375 99.95859375 11.2 99.5 11.643359375 99.0919921875 11.65 98.45
L 11.75 13.2
M -7.2 -6
Q -7.3349609375 -6.195703125 -7.55 -6.35 -10.0052734375 -2.7806640625 -13.2 18.35
L -26.15 95.7
Q -26.231640625 96.3162109375 -25.9 96.8 -25.510546875 97.3275390625 -24.9 97.4 -24.283984375 97.5318359375 -23.8 97.15 -23.2728515625 96.81015625 -23.2 96.2
L -23.1 95.6 -6.95 -4.85
Q -6.8689453125 -5.175 -6.95 -5.5 -7.0064453125 -5.7345703125 -7.2 -6 Z"/>

<path fill="#9EDBF8" stroke="none" d="
M -6.95 -5.5
Q -6.8689453125 -5.175 -6.95 -4.85
L -23.1 95.6
Q -6.440625 92.104296875 8.65 97.85
L 9.65 2.35
Q 9.6564453125 1.7580078125 10.1 1.3 10.139453125 1.287109375 10.15 1.25 10.226953125 1.211328125 10.25 1.15 10.20390625 1.0802734375 10.1 0.95 3.43359375 -7.75078125 -6.95 -5.5 Z"/>
</g>

<g id="Designs_mlp422_019_ext_ponyville_pool_closeup_ref_RD_Chest_1_Layer0_0_FILL">
<path fill="#6DABDD" stroke="none" d="
M 0.35 5.15
Q 3.3470703125 5.1625 5.15 0.95 2.52265625 2.8541015625 0.35 2.85 -1.8236328125 2.853515625 -4.75 1.25 -2.6337890625 5.1515625 0.35 5.15 Z"/>

<path fill="#9EDBF8" stroke="none" d="
M -0.8 -24.1
Q -15.0033203125 -20.309765625 -12.9 -11.3 -10.7470703125 -2.2962890625 -4.75 1.25 -1.8236328125 2.853515625 0.35 2.85 2.52265625 2.8541015625 5.15 0.95 10.1755859375 -1.2046875 11.7 -12.5 13.219140625 -23.8052734375 -0.8 -24.1 Z"/>
</g>

<g id="Designs_mlp422_019_ext_ponyville_pool_closeup_ref_RD_Mane_0_Layer3_0_FILL">
<path fill="#1E98D5" stroke="none" d="
M 3.5 28.15
L 3.4 28 3.25 27.9
Q -0.50078125 24.1328125 -2.6 25.6 -4.732421875 26.4037109375 -4.7 31.8
L -4.7 31.9 -4.7 32.1
Q -3.3875 38.4158203125 -4.8 45.45
L -4.8 45.45
Q -5.62109375 49.9943359375 -8.55 58.2 -8.9255859375 59.375390625 -9.3 60.5
L -9.3 60.45
Q -11.76484375 67.5640625 -12.6 71.2 -13.8 76.8 -12.45 84.35
L -11.4 89.8 -10.15 85.7
Q -7.800390625 77.434765625 -4.15 70.85 -5.7267578125 80.5666015625 -3.15 90.1 -1.2 97.2 4.15 105.55
L 7.2 109.4 6.9 105.15
Q 6.3396484375 99.6650390625 9.1 85.15 12.3064453125 68.8138671875 12.1 57.65
L 12.1 57.6
Q 12.1005859375 56.7 12.05 55.75 11.5912109375 46.3318359375 8 37.3 6.159375 32.6861328125 3.5 28.15
M 0.95 29.8
Q 3.455078125 34.05 5.2 38.4 5.5427734375 39.26171875 5.85 40.1 1.8484375 51.67109375 -5.55 58.85 -2.6701171875 50.6369140625 -1.85 46.05 -0.3259765625 38.451171875 -1.7 31.6 -1.701171875 28.8466796875 -1.2 28.25 -0.6291015625 28.27265625 0.95 29.8
M 8.85 65.45
Q 8.2576171875 73.9142578125 6.15 84.6 4.3572265625 94.0478515625 3.9 99.8 1.162109375 94.58125 -0.25 89.3 -0.4119140625 88.6982421875 -0.55 88.1 5.841796875 78.748828125 8.85 65.45 Z"/>

<path fill="#662F89" stroke="none" d="
M 6.15 84.6
Q 8.2576171875 73.9142578125 8.85 65.45 5.841796875 78.748828125 -0.55 88.1 -0.4119140625 88.6982421875 -0.25 89.3 1.162109375 94.58125 3.9 99.8 4.3572265625 94.0478515625 6.15 84.6 Z"/>

<path fill="#62BC4D" stroke="none" d="
M 5.2 38.4
Q 3.455078125 34.05 0.95 29.8 -0.6291015625 28.27265625 -1.2 28.25 -1.701171875 28.8466796875 -1.7 31.6 -0.3259765625 38.451171875 -1.85 46.05 -2.6701171875 50.6369140625 -5.55 58.85 1.8484375 51.67109375 5.85 40.1 5.5427734375 39.26171875 5.2 38.4 Z"/>
</g>

<g id="Designs_mlp422_019_ext_ponyville_pool_closeup_ref_RD_Skull_2_Layer0_0_FILL">
<path fill="#6DABDD" stroke="none" d="
M 6.5 -52
Q 3.8232421875 -52.20390625 0.9 -52.25 -3.4978515625 -52.3205078125 -7.7 -51.65 -12.3541015625 -50.8947265625 -16.75 -49.2 -18.8431640625 -48.379296875 -20.75 -47.4 -26.1625 -44.578125 -30.1 -40.4 -30.1439453125 -40.3251953125 -30.25 -40.25 -30.637890625 -39.783203125 -31.05 -39.3 -31.219921875 -39.1001953125 -31.4 -38.9 -31.4419921875 -38.85 -31.5 -38.8 -32.3697265625 -37.730078125 -33.2 -36.65 -46.1 -20.0744140625 -46.1 -1.1 -46.1 11.3 -43.4 20.4 -40.6 29.75 -34.65 36.5 -27.65 44.55 -18.5 48.75 -9.25 53.05 1.5 53.05 22.65 53.05 37 36.5 42.8 29.9 45.45 20.1 47.85 11.1 47.9 -1.7 47.8548828125 -21.3345703125 36.05 -36.65 35.2205078125 -37.7357421875 34.3 -38.8 34.2921875 -38.8501953125 34.25 -38.9 33.8369140625 -39.4025390625 33.4 -39.9 33.247265625 -40.076171875 33.1 -40.25 33.019921875 -40.3251953125 32.95 -40.4 29.2015625 -44.5505859375 24.15 -47.25 20.981640625 -48.9029296875 17.3 -50 13.7369140625 -51.0845703125 9.45 -51.65 8.0302734375 -51.842578125 6.5 -52
M 30.35 -38.8
Q 30.7716796875 -38.38359375 31.15 -37.95 31.7154296875 -37.3041015625 32.25 -36.65 44.8521484375 -21.4498046875 44.9 -1.7 44.85 10.45 42.6 18.95 40.15 28.25 34.75 34.55 21.25 50.05 1.5 50.05 -8.55 50.05 -17.25 46.05 -25.8 42.1 -32.4 34.55 -38 28.1 -40.6 19.25 -43.1 10.65 -43.1 -1.1 -43.1 -20.5748046875 -29.4 -36.65 -29.10546875 -37.00078125 -28.8 -37.35 -28.15 -38.0984375 -27.5 -38.8 -27.4234375 -38.8501953125 -27.4 -38.9 -26.6900390625 -39.5982421875 -26 -40.25 -25.883984375 -40.325390625 -25.8 -40.4 -23.431640625 -42.5267578125 -20.75 -44.15 -17.675390625 -45.96484375 -14.2 -47.15 -7.25 -49.55 0.9 -49.25 10.95 -48.85 16.65 -47.2 20.4560546875 -46.0625 23.7 -44.15 26.42265625 -42.547265625 28.75 -40.4 28.8318359375 -40.325390625 28.9 -40.25 29.6146484375 -39.5994140625 30.25 -38.9 30.3234375 -38.85 30.35 -38.8 Z"/>

<path fill="#9EDBF8" stroke="none" d="
M 31.15 -37.95
Q 30.7716796875 -38.38359375 30.35 -38.8 30.3234375 -38.85 30.25 -38.9 29.6146484375 -39.5994140625 28.9 -40.25 28.8318359375 -40.325390625 28.75 -40.4 26.42265625 -42.547265625 23.7 -44.15 20.4560546875 -46.0625 16.65 -47.2 10.95 -48.85 0.9 -49.25 -7.25 -49.55 -14.2 -47.15 -17.675390625 -45.96484375 -20.75 -44.15 -23.431640625 -42.5267578125 -25.8 -40.4 -25.883984375 -40.325390625 -26 -40.25 -26.6900390625 -39.5982421875 -27.4 -38.9 -27.4234375 -38.8501953125 -27.5 -38.8 -28.15 -38.0984375 -28.8 -37.35 -29.10546875 -37.00078125 -29.4 -36.65 -43.1 -20.5748046875 -43.1 -1.1 -43.1 10.65 -40.6 19.25 -38 28.1 -32.4 34.55 -25.8 42.1 -17.25 46.05 -8.55 50.05 1.5 50.05 21.25 50.05 34.75 34.55 40.15 28.25 42.6 18.95 44.85 10.45 44.9 -1.7 44.8521484375 -21.4498046875 32.25 -36.65 31.7154296875 -37.3041015625 31.15 -37.95 Z"/>
</g>

<g id="Designs_mlp422_019_ext_ponyville_pool_closeup_ref_RD_Hair_07_0_Layer0_0_FILL">
<path fill="#FDF6AE" stroke="none" d="
M 8.25 -0.85
Q 5.795703125 -3.0107421875 2.75 -5.2 -0.24453125 -7.348046875 -3.5 -10
L -4.15 7.05
Q -1.935546875 3.678125 6.3 1.75 10.7513671875 1.36328125 8.25 -0.85 Z"/>

<path fill="#1E98D5" stroke="none" d="
M 2.75 -5.2
Q 5.795703125 -3.0107421875 8.25 -0.85 10.7513671875 1.36328125 6.3 1.75 -1.935546875 3.678125 -4.15 7.05
L -3.65 11.15
Q 0.0185546875 6.39921875 8.55 4.1 16.985546875 1.8486328125 5.2 -7.2
L -3.5 -13.55 -3.5 -10
Q -0.24453125 -7.348046875 2.75 -5.2 Z"/>
</g>

<g id="Designs_mlp422_019_ext_ponyville_pool_closeup_ref_PTS_Ear_1_Layer0_0_FILL">
<path fill="#E781B3" stroke="none" d="
M 36.65 -19.8
Q 36.1 -19.35 36.45 -19.45 36.599609375 -19.4890625 36.75 -19.55
L 36.65 -19.8
M 24.65 -53.15
L 24.5 -53.1
Q 24.55234375 -52.9875 24.6 -52.9
L 24.65 -53.15
M 37.5 -36.45
L 37.35 -36
Q 37.4794921875 -36.2111328125 37.6 -36.45
L 37.5 -36.45 Z"/>

<path fill="#795B8A" stroke="none" d="
M 36.75 -19.55
L 36.65 -19.8 36.75 -19.55 36.75 -19.55
M 24.5 -53.1
L 24.65 -53.15 24.5 -53.1 24.5 -53.1 Z"/>

<path fill="#9EDBF8" stroke="none" d="
M 45.95 -60.3
Q 44.3 -65.9 41 -71.9 36.65 -79.9 32.2 -80.55 31.35 -80.35 30.25 -78.75 28.75 -76.7 27.8 -73.35 27 -70.55 25.75 -61.6
L 24.65 -53.15
Q 24.683203125 -53.036328125 24.7 -52.95 30.24375 -34.117578125 37.5 -20.45 42.4 -23.35 45.55 -33.05 48.25 -41.35 48 -47.75
L 48 -47.8
Q 47.7 -54.35 45.95 -60.3
M 37.35 -36
L 37.5 -36.45
Q 43.45 -50.95 37.15 -70.6 42.35 -61.1 42.5 -52.95 42.6462890625 -44.8525390625 37.6 -36.45 37.4794921875 -36.2111328125 37.35 -36 Z"/>

<path fill="#6DABDD" stroke="none" d="
M 37.5 -36.45
L 37.6 -36.45
Q 42.6462890625 -44.8525390625 42.5 -52.95 42.35 -61.1 37.15 -70.6 43.45 -50.95 37.5 -36.45
M 41 -71.9
Q 44.3 -65.9 45.95 -60.3 47.7 -54.35 48 -47.8
L 48 -47.75
Q 48.25 -41.35 45.55 -33.05 42.4 -23.35 37.5 -20.45 36.95 -20.05 36.65 -19.8
L 36.75 -19.55
Q 44.1849609375 -21.66953125 48.15 -31.9 51.35 -40.1 51 -47.9 50.7 -54.8 48.85 -61.05 47.1 -67 43.65 -73.35 40.8 -78.55 37.25 -81.35 34.45 -83.6 32.45 -83.55
L 32.4 -83.55
Q 30.65 -83.85 28.75 -81.65 26.7 -79.25 24.95 -74.35 23.5 -70.2 23.15 -63.75 22.7615234375 -56.5126953125 24.5 -53.1
L 24.65 -53.15 25.75 -61.6
Q 27 -70.55 27.8 -73.35 28.75 -76.7 30.25 -78.75 31.35 -80.35 32.2 -80.55 36.65 -79.9 41 -71.9 Z"/>
</g>

<g id="Mask_Mask_Designs_mlp422_019_ext_ponyville_pool_closeup_ref_RD_EyeWhite_front_0_Layer1_0_FILL">
<path fill="#FFFFFF" stroke="none" d="
M 21.8 -8.65
L 21.8 -8.7 21.8 -8.7
Q 21.5291015625 -12.88828125 19.9 -16.5 16.2369140625 -24.7787109375 7.7 -25.15 -0.7546875 -25.4513671875 -9.15 -17.65 -11.5919921875 -15.3421875 -14.15 -12.75 -14.3966796875 -12.4251953125 -14.65 -12.1
L -14.7 -12.15
Q -17.1443359375 -8.46875 -18.8 -4.25 -19.798828125 -1.8703125 -20.5 0.65 -23.4314453125 11.3853515625 -19.45 19.15 -15.521484375 26.9826171875 -7.05 27.3 -6.3294921875 27.3373046875 -5.65 27.3 2.151171875 27.0375 9.6 20.25 16.1873046875 14.3169921875 19.35 6.15 20.1560546875 4.2439453125 20.75 2.2 21.419140625 -0.267578125 21.7 -2.6 22.0884765625 -5.5162109375 21.8 -8.45 21.8197265625 -8.5388671875 21.8 -8.65 Z"/>
</g>

<g id="Designs_mlp422_019_ext_ponyville_pool_closeup_ref_RD_EyeWhite_front_0_Layer1_0_FILL">
<path fill="#FFFFFF" stroke="none" d="
M 21.8 -8.65
L 21.8 -8.7 21.8 -8.7
Q 21.5291015625 -12.88828125 19.9 -16.5 16.2369140625 -24.7787109375 7.7 -25.15 -0.7546875 -25.4513671875 -9.15 -17.65 -11.5919921875 -15.3421875 -14.15 -12.75 -14.3966796875 -12.4251953125 -14.65 -12.1
L -14.7 -12.15
Q -17.1443359375 -8.46875 -18.8 -4.25 -19.798828125 -1.8703125 -20.5 0.65 -23.4314453125 11.3853515625 -19.45 19.15 -15.521484375 26.9826171875 -7.05 27.3 -6.3294921875 27.3373046875 -5.65 27.3 2.151171875 27.0375 9.6 20.25 16.1873046875 14.3169921875 19.35 6.15 20.1560546875 4.2439453125 20.75 2.2 21.419140625 -0.267578125 21.7 -2.6 22.0884765625 -5.5162109375 21.8 -8.45 21.8197265625 -8.5388671875 21.8 -8.65 Z"/>
</g>

<g id="Designs_mlp422_019_ext_ponyville_pool_closeup_ref_RD_Iris_0_Layer3_0_FILL">
<path fill="url(#Gradient_1)" stroke="none" d="
M 17.7 -13.05
Q 13.45 -21.1 5.25 -22.95 -3 -24.85 -10.3 -19.4 -17.6 -14 -19.75 -4.45 -21.95 5.05 -17.7 13.1 -13.45 21.15 -5.2 23 3 24.85 10.3 19.45 17.6 14 19.8 4.5 21.95 -5 17.7 -13.05 Z"/>
</g>

<g id="Designs_mlp422_019_ext_ponyville_pool_closeup_ref_RD_Iris_0_Layer2_0_FILL">
<path fill="#FFB8E0" stroke="none" d="
M -15.2 16.8
L -5.75 10.25 -6.5 8.35
Q -17.65 11.2 -18.6 11.15 -17.49765625 13.9521484375 -15.2 16.8 Z"/>
</g>

<g id="Designs_mlp422_019_ext_ponyville_pool_closeup_ref_RD_Iris_0_Layer1_0_FILL">
<path fill="#DB53A2" stroke="none" d="
M -20.4 5.25
Q -19.869921875 8.2998046875 -18.6 11.2
L -6.3 8.6 -6.5 6.35 -20.4 5.25 Z"/>
</g>

<g id="Designs_mlp422_019_ext_ponyville_pool_closeup_ref_RD_Pupil_0_Layer0_0_FILL">
<path fill="#000000" stroke="none" d="
M 12.45 -9.6
Q 10.5203125 -15.9396484375 5.5 -17.45 0.487109375 -18.9677734375 -4.7 -14.75 -9.854296875 -10.4658203125 -12.15 -2.95 -14.402734375 4.56015625 -12.5 10.9 -10.484375 17.37421875 -5.45 18.9 -0.4265625 20.40234375 4.7 16.1 9.91484375 11.9001953125 12.15 4.4 14.43828125 -3.12578125 12.45 -9.6 Z"/>
</g>

<g id="Designs_mlp422_019_ext_ponyville_pool_closeup_ref_RD_Hilights_0_Layer1_0_FILL">
<path fill="#FFFFFF" stroke="none" d="
M -5.65 9.75
Q -5.923828125 9.611328125 -6.25 9.6 -6.553515625 9.611328125 -6.75 9.75 -6.8736328125 9.8845703125 -6.95 10.05 -7.1501953125 10.5076171875 -6.95 11.15 -6.89375 11.2603515625 -6.85 11.35 -6.7107421875 11.73828125 -6.5 12 -6.237890625 12.2337890625 -5.95 12.3 -5.74765625 12.3888671875 -5.55 12.4 -4.9794921875 12.3888671875 -4.7 11.95 -4.5447265625 11.7576171875 -4.5 11.5 -4.5158203125 11.3427734375 -4.6 11.15 -4.7845703125 10.5076171875 -5.3 10.05 -5.4515625 9.8845703125 -5.65 9.75
M -5.45 9.7
Q -5.783984375 9.53046875 -6.15 9.5 -6.495703125 9.53046875 -6.75 9.7 -6.871875 9.7740234375 -7 9.9 -7.258984375 10.3263671875 -7.15 10.9 -7.119140625 11.0603515625 -7.1 11.2 -6.9546875 11.6384765625 -6.6 11.95 -6.536328125 11.9923828125 -6.5 12 -6.7107421875 11.73828125 -6.85 11.35 -6.89375 11.2603515625 -6.95 11.15 -7.1501953125 10.5076171875 -6.95 10.05 -6.8736328125 9.8845703125 -6.75 9.75 -6.553515625 9.611328125 -6.25 9.6 -5.923828125 9.611328125 -5.65 9.75 -5.4515625 9.8845703125 -5.3 10.05 -4.7845703125 10.5076171875 -4.6 11.15 -4.5158203125 11.3427734375 -4.5 11.5 -4.440234375 11.247265625 -4.5 10.9 -4.6404296875 10.3263671875 -5.15 9.9 -5.2845703125 9.7740234375 -5.45 9.7
M 4.6 -2.05
Q 3.962890625 -5.2470703125 2.25 -7.55 0.5544921875 -9.6904296875 -1.2 -9.7 -2.9 -9.6904296875 -3.7 -7.55 -4.4703125 -5.2470703125 -3.8 -2.05 -3.1365234375 1.213671875 -1.45 3.35 0.2720703125 5.657421875 2 5.65 3.7263671875 5.657421875 4.5 3.35 5.2966796875 1.213671875 4.6 -2.05 Z"/>
</g>

<g id="Designs_mlp422_019_ext_ponyville_pool_closeup_ref_RD_Blink_front__0_Layer2_0_FILL">
<path fill="#000000" stroke="none" d="
M 1.7 -22.95
Q 5.92421875 -24.0796875 9.85 -23.3 13.5279296875 -22.483203125 17.3 -18.15 21.1166015625 -13.823828125 21.9 -5.65
L 23.1 -7.3
Q 23.1501953125 -11.0392578125 22.05 -14.9 21.50234375 -16.8623046875 18.45 -20.35 15.1640625 -24.176953125 10.6 -25 1.2861328125 -26.751171875 -7.55 -20.4 -11.2509765625 -17.658984375 -14.3 -13.75 -17.4216796875 -9.651953125 -19.9 -2.9 -20.3908203125 -1.584375 -20.65 -0.25 -21.203125 2.1416015625 -21.4 5.3 -21.922265625 12.8583984375 -21.05 15.3 -20.5654296875 16.36484375 -20.6 16.05 -21.7583984375 11.3294921875 -18.4 -0.35
L -17.55 -3
Q -15.6931640625 -8.214453125 -12.6 -12.2 -9.0896484375 -16.564453125 -6.05 -18.75 -1.470703125 -22.07890625 1.7 -22.95 Z"/>
</g>

<g id="Designs_mlp422_019_ext_ponyville_pool_closeup_ref_RD_Blink_front__0_Layer1_0_FILL">
<path fill="#000000" stroke="none" d="
M 28.35 -13.95
Q 28.15 -15.05 19 -11.95
L 19.55 -10
Q 28.55 -12.8 28.35 -13.95 Z"/>
</g>

<g id="Designs_mlp422_019_ext_ponyville_pool_closeup_ref_RD_Blink_front__0_Layer1_1_FILL">
<path fill="#000000" stroke="none" d="
M 15.95 -18.8
L 17.25 -17.05
Q 26.6 -24.2 25.95 -25.15 25.65 -25.6 21.2 -22.55 16.55 -19.2 15.95 -18.8 Z"/>
</g>

<g id="Designs_mlp422_019_ext_ponyville_pool_closeup_ref_RD_Blink_front__0_Layer1_2_FILL">
<path fill="#000000" stroke="none" d="
M 13.2 -22.05
Q 16.55 -32.15 15.4 -32.5 14.7 -32.7 11.5 -23.65
L 13.2 -22.05 Z"/>
</g>

<g id="Designs_mlp422_019_ext_ponyville_pool_closeup_ref_RD_Mouth_front_chin__16_Layer1_0_FILL">
<path fill="#9EDBF8" stroke="none" d="
M 1.5 24.2
Q 9.85 24.45 18.05 19.95 26.5 14.95 33.65 6.85 33.7 6.45 33.75 6.05 15.170703125 12.2146484375 -0.45 8.45 -17.6271484375 12.27421875 -34.65 3.45 -26.25 13.6 -17.6 18.55 -16.75 19.05 -15.9 19.5 -7.55 23.85 1.5 24.2 Z"/>
</g>

<g id="Designs_mlp422_019_ext_ponyville_pool_closeup_ref_RD_Mouth_front_hole__16_Layer6_0_FILL">
<path fill="#FFFFFF" stroke="none" d="
M 4.4 18.85
Q 7.3791015625 15.874609375 9.15 7.95 5.860546875 12.3060546875 0.5 12.3 -5.1890625 12.35234375 -9 7.3 -6.956640625 15.746484375 -2.9 18.9
L -2.9 18.95
Q 1.0646484375 22.14453125 4.4 18.85 Z"/>
</g>

<g id="Designs_mlp422_019_ext_ponyville_pool_closeup_ref_RD_Wrinkle_0_Layer0_0_FILL">
<path fill="#6DABDD" stroke="none" d="
M 6.4 0.9
Q 6.229296875 0.7560546875 6.05 0.6 3.57890625 -1.2400390625 -0.2 -1.1 -3.897265625 -1.0052734375 -6.15 0.85 -6.28046875 0.943359375 -6.4 1.05
L -6.05 1
Q 0.6 0 5.95 0.8
L 6.4 0.9 Z"/>
</g>

<g id="Designs_mlp422_019_ext_ponyville_pool_closeup_ref_RD_Mouth_front_hole__16_Layer4_0_FILL">
<path fill="#000000" stroke="none" d="
M -3.95 20.25
L -3.95 20.25 -3.95 20.25 -3.95 20.25 Z"/>

<path fill="#6DABDD" stroke="none" d="
M 11.45 0.85
Q 7.232421875 10.49140625 0.5 10.6 -6.2533203125 10.528515625 -11.45 0.55 -9.6255859375 16.00625 -3.95 20.25
L -3.95 20.25
Q 1.2353515625 24.4556640625 5.6 20.05 9.8857421875 15.9595703125 11.45 0.85
M 9.15 7.95
Q 7.3791015625 15.874609375 4.4 18.85 1.0646484375 22.14453125 -2.9 18.95
L -2.9 18.9
Q -6.956640625 15.746484375 -9 7.3 -5.1890625 12.35234375 0.5 12.3 5.860546875 12.3060546875 9.15 7.95 Z"/>
</g>

<g id="Designs_mlp422_019_ext_ponyville_pool_closeup_ref_RD_Nostril_front_0_Layer0_0_FILL">
<path fill="#6DABDD" stroke="none" d="
M -7.55 1.3
Q -6.9 3 -3.7 2.1 -5.85 1.15 -6.2 0.25 -6.7 -0.8 -6.4 -2.2 -8.2 -0.15 -7.55 1.3
M 3.85 1.95
Q 6.7 2.8 7.5 1.15 8.2 -0.45 6.55 -2.35 6.8 -1 6.35 0.05 5.95 1.05 3.85 1.95 Z"/>
</g>

<g id="Designs_mlp422_019_ext_ponyville_pool_closeup_ref_RD_Hair_01_0_Layer1_0_FILL">
<path fill="#EE4144" stroke="none" d="
M -12.65 -41.9
Q -11.9560546875 -41.978125 -11.3 -42.05
L -11.3 -46.65
Q -16.116796875 -46.1603515625 -21.1 -44.55 -30.05 -41.65 -35.9 -36.1 -25.2849609375 -39.85078125 -16.45 -41.35 -14.4796875 -41.6794921875 -12.65 -41.9
M -11.3 -41.95
L -12.25 -41.7
Q -12.794140625 -41.559375 -13.35 -41.4 -14.1701171875 -40.8427734375 -15.05 -40.2 -20.6 -36.4 -28.35 -29.65 -28.95 -29.1 -29.55 -28.6 -40.55 -18.75 -46.55 -5.4 -38.46640625 -11.9796875 -30.4 -17.95 -30.2419921875 -18.0455078125 -30.1 -18.15 -30.040625 -18.1935546875 -30 -18.25 -20.635546875 -25.1013671875 -11.3 -31.15
L -11.3 -41.95 Z"/>

<path fill="#F37033" stroke="none" d="
M -46.55 -5.4
Q -47.35 -3.95 -48 -2.5 -51.05 3.85 -53.3 10.9 -50.898046875 7.3140625 -42.95 1.3 -41.098828125 -0.103125 -38.95 -1.65 -36.6884765625 -3.246875 -34.1 -5 -36.842578125 -2.6794921875 -39.6 -0.25 -45.1345703125 12.9888671875 -47.85 28.1 -48.75 36.35 -47.9 44.55 -34.165625 21.11796875 -14.2 8.05 -13.865234375 7.8525390625 -13.55 7.65 -12.45 6.95 -11.3 6.2
L -11.3 -31.15
Q -20.635546875 -25.1013671875 -30 -18.25 -30.040625 -18.1935546875 -30.1 -18.15 -30.2419921875 -18.0455078125 -30.4 -17.95 -38.46640625 -11.9796875 -46.55 -5.4
M -33.95 -5.2
Q -34 -5.1361328125 -34 -5.1
L -35.1 -4.5 -33.95 -5.2 Z"/>

<path fill="#1E98D5" stroke="none" d="
M -34 -5.1
Q -34 -5.1361328125 -33.95 -5.2
L -35.1 -4.5 -34 -5.1
M -48 -2.5
Q -47.35 -3.95 -46.55 -5.4 -40.55 -18.75 -29.55 -28.6 -28.95 -29.1 -28.35 -29.65 -20.6 -36.4 -15.05 -40.2 -14.1701171875 -40.8427734375 -13.35 -41.4 -12.794140625 -41.559375 -12.25 -41.7
L -11.3 -41.95 -11.3 -42.05
Q -11.9560546875 -41.978125 -12.65 -41.9 -14.4796875 -41.6794921875 -16.45 -41.35 -25.2849609375 -39.85078125 -35.9 -36.1 -30.05 -41.65 -21.1 -44.55 -16.116796875 -46.1603515625 -11.3 -46.65
L -11.3 -49.55
Q -18.153515625 -48.5826171875 -26.95 -44.6 -39.7 -38.9 -49.25 -27.65 -32.5958984375 -35.519921875 -19.05 -39.75 -19.12109375 -39.699609375 -19.2 -39.65 -19.3 -39.6 -19.35 -39.6 -41.4 -24.8 -50.7 -4.95 -54.25 2.45 -57.3 21.5 -48.10625 8.6544921875 -44.3 4.3 -46.7958984375 10.375 -48.55 17.15 -49.9 21.85 -50.55 26.6 -52.2 37.95 -50.3 49.45
L -49.7 53.65 -49.6 53.65 -47.5 49.9
Q -33.669921875 24.5369140625 -12.95 10.8 -12.433984375 10.5109375 -11.95 10.2
L -11.9 10.15
Q -11.5994140625 9.9537109375 -11.3 9.75
L -11.3 6.2
Q -12.45 6.95 -13.55 7.65 -13.865234375 7.8525390625 -14.2 8.05 -34.165625 21.11796875 -47.9 44.55 -48.75 36.35 -47.85 28.1 -45.1345703125 12.9888671875 -39.6 -0.25 -36.842578125 -2.6794921875 -34.1 -5 -36.6884765625 -3.246875 -38.95 -1.65 -41.098828125 -0.103125 -42.95 1.3 -50.898046875 7.3140625 -53.3 10.9 -51.05 3.85 -48 -2.5 Z"/>
</g>

<g id="Designs_mlp422_019_ext_ponyville_pool_closeup_ref_RD_Hair_01_1_Layer0_0_FILL">
<path fill="#1E98D5" stroke="none" d="
M -11.3 -42.05
L -11.3 -41.95 -10.7 -42.1
Q -10.9986328125 -42.073046875 -11.3 -42.05
M 4.45 -1.4
Q 3.644921875 -1.0861328125 2.85 -0.8 0.18046875 0.273046875 -2.4 1.45 -3.660546875 2.058203125 -4.9 2.65 -8.1740234375 4.3134765625 -11.3 6.2
L -11.3 9.75
Q -8.0373046875 7.650390625 -4.9 5.85 -3.63984375 5.142578125 -2.4 4.45 0.1166015625 3.102734375 2.55 1.95 3.19140625 1.654296875 3.8 1.35 4.898046875 0.892578125 5.95 0.45 6.4779296875 0.2287109375 7 0 9.9779296875 -1.1814453125 12.8 -2.05 10.5666015625 1.18828125 7.3 4.4 6.843359375 4.8353515625 6.35 5.25 4.286328125 7.23359375 1.8 9.15
L 1.8 9.2
Q -0.176953125 10.7560546875 -2.4 12.3 -2.89375 12.6548828125 -3.4 13
L -6.95 15.45 -6.7 16 -2.5 15.75
Q -2.45 15.7490234375 -2.4 15.75 -0.731640625 15.71171875 0.9 15.5 1.0158203125 15.5130859375 1.1 15.5 4.1404296875 15.12890625 7.05 14.25 7.5078125 14.1212890625 7.95 13.95 20.4736328125 9.9146484375 31.7 -3.55 33.45 -5.6 35.15 -7.85 37.1 -11.5 35.75 -13.15
L 35.7 -13.15 35.65 -13.1
Q 33.4 -10.6 31.7 -8.35 31.15 -7.6 30.6 -6.9 30.5841796875 -6.8763671875 30.55 -6.85 30.4841796875 -6.7341796875 30.4 -6.65 19.8984375 6.416796875 7.75 11 7.3001953125 11.167578125 6.85 11.3 4.291796875 12.2267578125 1.65 12.75 4.3654296875 10.5490234375 6.6 8.35 7.077734375 7.9439453125 7.5 7.5 12.521484375 2.5640625 15.15 -2.2
L 16.95 -5.35 16.65 -5.25
Q 16.58671875 -5.2029296875 16.5 -5.15
L 13.4 -4.25
Q 10.0642578125 -3.350390625 6.85 -2.25 6.2845703125 -2.0501953125 5.7 -1.85 5.0833984375 -1.6212890625 4.45 -1.4
M 21.7 -41.05
L 21.7 -41.05
Q 18.6 -42.8 15.65 -44.15 13.95 -44.95 12.35 -45.6 12 -45.75 11.65 -45.9 9.7146484375 -46.65390625 7.75 -47.3 6.9115234375 -47.5333984375 6.05 -47.8 5.1404296875 -48.0267578125 4.2 -48.25 3.9890625 -48.3181640625 3.75 -48.4 3.639453125 -48.3984375 3.5 -48.45 0.566796875 -49.1294921875 -2.4 -49.5 -3.6490234375 -49.6548828125 -4.9 -49.75 -5.2498046875 -49.777734375 -5.6 -49.8 -8.25859375 -49.969140625 -11.3 -49.55
L -11.3 -46.65
Q -8.1904296875 -46.9265625 -5.15 -46.75 -5.025 -46.74140625 -4.9 -46.75 -3.65 -46.638671875 -2.4 -46.5 -2.325 -46.4603515625 -2.25 -46.45 -1.6802734375 -46.3568359375 -1.1 -46.25 0.14765625 -46.0189453125 1.4 -45.75 2.4482421875 -45.48515625 3.5 -45.2 3.739453125 -45.1349609375 3.95 -45.1 4.870703125 -44.8212890625 5.75 -44.55 6.601953125 -44.2814453125 7.4 -44 8.1150390625 -43.7529296875 8.8 -43.5 8.9650390625 -43.4404296875 9.1 -43.4 11.3185546875 -42.5763671875 13.55 -41.6 13.7 -41.5 13.9 -41.4 14.18984375 -41.3859375 14.45 -41.4 16.2607421875 -40.548046875 18.05 -39.6
L 18.1 -39.6 18.1 -39.6
Q 18.1177734375 -39.5322265625 18.15 -39.5
L 19.8 -38.7
Q 19.7748046875 -38.68828125 19.75 -38.7 19.8216796875 -38.6390625 19.9 -38.6 20 -38.5 20.2 -38.4 22.7 -36.95 25.35 -35.3 28.4 -33.25 31.65 -30.9 33.3 -29.7 35.85 -27.65 36.9 -29.3 35 -31.9 33.3 -33.25 31.65 -34.45 31.037109375 -34.90390625 30.4 -35.35 30.466015625 -35.3435546875 30.5 -35.35 28.4 -36.75 26.45 -38.1 25.7 -38.6 25 -39.05 23.45 -40 22.05 -40.85 21.99375 -40.8640625 21.95 -40.9 21.8810546875 -40.9111328125 21.8 -40.95 21.783203125 -41.0001953125 21.75 -41.05
L 21.7 -41.05 Z"/>

<path fill="#EE4144" stroke="none" d="
M 9.1 -43.4
Q 8.9650390625 -43.4404296875 8.8 -43.5 8.1150390625 -43.7529296875 7.4 -44 6.601953125 -44.2814453125 5.75 -44.55 4.870703125 -44.8212890625 3.95 -45.1 3.739453125 -45.1349609375 3.5 -45.2 2.4482421875 -45.48515625 1.4 -45.75 0.14765625 -46.0189453125 -1.1 -46.25 -1.6802734375 -46.3568359375 -2.25 -46.45 -2.325 -46.4603515625 -2.4 -46.5 -3.65 -46.638671875 -4.9 -46.75 -5.025 -46.74140625 -5.15 -46.75 -8.1904296875 -46.9265625 -11.3 -46.65
L -11.3 -42.05
Q -10.9986328125 -42.073046875 -10.7 -42.1
L -11.3 -41.95 -11.3 -31.15
Q -10.7875 -31.4947265625 -10.3 -31.85 -7.587109375 -33.550390625 -4.9 -35.2 -3.6498046875 -35.971875 -2.4 -36.75 0.437890625 -38.455859375 3.25 -40.1 3.77265625 -40.3845703125 4.25 -40.7 4.9193359375 -41.0396484375 5.55 -41.4 6.4109375 -41.875390625 7.25 -42.35 7.725 -42.611328125 8.2 -42.9 8.6650390625 -43.125 9.1 -43.4 Z"/>

<path fill="#F37033" stroke="none" d="
M 13.9 -41.4
Q 13.7 -41.5 13.55 -41.6 11.3185546875 -42.5763671875 9.1 -43.4 8.6650390625 -43.125 8.2 -42.9 7.725 -42.611328125 7.25 -42.35 6.4109375 -41.875390625 5.55 -41.4 4.9193359375 -41.0396484375 4.25 -40.7 3.77265625 -40.3845703125 3.25 -40.1 0.437890625 -38.455859375 -2.4 -36.75 -3.6498046875 -35.971875 -4.9 -35.2 -7.587109375 -33.550390625 -10.3 -31.85 -10.7875 -31.4947265625 -11.3 -31.15
L -11.3 6.2
Q -8.12578125 0.4759765625 -4.9 -4.85 -3.6537109375 -6.885546875 -2.4 -8.9 0.158984375 -12.9267578125 2.75 -16.75 3.81171875 -18.278125 4.85 -19.8 5.2376953125 -20.29375 5.6 -20.8 5.816015625 -21.10234375 6 -21.4 12.8583984375 -30.8849609375 19.9 -38.6 19.8216796875 -38.6390625 19.75 -38.7 19.7748046875 -38.68828125 19.8 -38.7
L 18.15 -39.5
Q 18.1177734375 -39.5322265625 18.1 -39.6
L 18.1 -39.6 18.05 -39.6
Q 16.2607421875 -40.548046875 14.45 -41.4 14.18984375 -41.3859375 13.9 -41.4 Z"/>

<path fill="#FDF6AE" stroke="none" d="
M 35.85 -27.65
Q 33.3 -29.7 31.65 -30.9 28.4 -33.25 25.35 -35.3 22.7 -36.95 20.2 -38.4 20 -38.5 19.9 -38.6 12.8583984375 -30.8849609375 6 -21.4 5.816015625 -21.10234375 5.6 -20.8 5.2376953125 -20.29375 4.85 -19.8 3.81171875 -18.278125 2.75 -16.75 0.158984375 -12.9267578125 -2.4 -8.9 -3.6537109375 -6.885546875 -4.9 -4.85 -8.12578125 0.4759765625 -11.3 6.2 -8.1740234375 4.3134765625 -4.9 2.65 -3.660546875 2.058203125 -2.4 1.45 0.18046875 0.273046875 2.85 -0.8 3.644921875 -1.0861328125 4.45 -1.4 5.0833984375 -1.6212890625 5.7 -1.85 6.2845703125 -2.0501953125 6.85 -2.25 10.0642578125 -3.350390625 13.4 -4.25
L 16.5 -5.15
Q 16.58671875 -5.2029296875 16.65 -5.25
L 16.95 -5.35 15.15 -2.2
Q 12.521484375 2.5640625 7.5 7.5 7.077734375 7.9439453125 6.6 8.35 4.3654296875 10.5490234375 1.65 12.75 4.291796875 12.2267578125 6.85 11.3 7.3001953125 11.167578125 7.75 11 19.8984375 6.416796875 30.4 -6.65 30.4841796875 -6.7341796875 30.55 -6.85 30.5841796875 -6.8763671875 30.6 -6.9 31.15 -7.6 31.7 -8.35 33.4 -10.6 35.65 -13.1
L 35.7 -13.15 35.85 -27.65 Z"/>
</g>

<path id="Designs_mlp422_019_ext_ponyville_pool_closeup_ref_RD_FrontLeg_3_4_hoof_4_Layer0_0_1_STROKES" stroke="#6DABDD" stroke-width="3" stroke-linejoin="round" stroke-linecap="round" fill="none" d="
M -1.075 -16.95
Q 6.5890625 -17.534375 12.05 -12.4 17.5083984375 -7.2515625 17.375 1.075 17.257421875 9.4 14.15 12.85 11.034765625 16.2953125 -2.15 16.525 -15.3279296875 16.747265625 -20.65 15.55 -25.98203125 14.3607421875 -23.25 8.325 -20.5228515625 2.2943359375 -18.125 -2.575 -15.71796875 -7.4599609375 -12.225 -11.925 -8.73125 -16.39453125 -1.075 -16.95 Z"/>

<path id="Designs_mlp422_019_ext_ponyville_pool_closeup_ref_RD_HindLeg_3_4rear_lower_0_Layer1_0_1_STROKES" stroke="#6DABDD" stroke-width="3" stroke-linejoin="round" stroke-linecap="round" fill="none" d="
M 11.5 -5.15
Q 17.0154296875 -1.388671875 7.6 6.9 -5.18671875 19.70546875 -8.9 12.2 -13.0958984375 2.169140625 -5.65 -3.6 1.836328125 -8.4703125 11.5 -5.15 Z"/>

<path id="Designs_mlp422_019_ext_ponyville_pool_closeup_ref_RD_HindLeg_3_4rear_lower_0_Layer0_0_1_STROKES" stroke="#6DABDD" stroke-width="3" stroke-linejoin="round" stroke-linecap="round" fill="none" d="
M -10.25 65.05
Q -1.994921875 37.8923828125 -9.5 10.55
M 13 -3.6
Q 27.7787109375 27.4462890625 26 63.3"/>

<path id="Designs_mlp422_019_ext_ponyville_pool_closeup_ref_RD_Hilights_0_Layer1_0_1_STROKES" stroke="#FFFFFF" stroke-width="4" stroke-linejoin="round" stroke-linecap="round" fill="none" d="
M 4.625 -2.025
Q 5.2966796875 1.213671875 4.5 3.375 3.7263671875 5.657421875 2 5.65 0.2720703125 5.657421875 -1.45 3.375 -3.1365234375 1.213671875 -3.8 -2.025 -4.4703125 -5.2470703125 -3.7 -7.525 -2.9 -9.6904296875 -1.175 -9.7 0.5544921875 -9.6904296875 2.25 -7.525 3.962890625 -5.2470703125 4.625 -2.025 Z"/>

<path id="Designs_mlp422_019_ext_ponyville_pool_closeup_ref_RD_Hilights_0_Layer1_0_2_STROKES" stroke="#FFFFFF" stroke-width="2.5" stroke-linejoin="round" stroke-linecap="round" fill="none" d="
M -6.5 12.025
Q -6.7107421875 11.73828125 -6.825 11.375 -6.89375 11.2603515625 -6.95 11.15 -7.1501953125 10.5076171875 -6.95 10.05 -6.8736328125 9.8845703125 -6.75 9.775 -6.553515625 9.611328125 -6.225 9.625 -5.923828125 9.611328125 -5.625 9.775 -5.4515625 9.8845703125 -5.275 10.05 -4.7845703125 10.5076171875 -4.575 11.15 -4.5158203125 11.3427734375 -4.5 11.5 -4.428125 11.938671875 -4.575 12.25 -4.7478515625 12.7052734375 -5.225 12.7 -5.4423828125 12.690625 -5.65 12.625 -5.9564453125 12.5263671875 -6.25 12.25 -6.3802734375 12.144921875 -6.5 12.025 Z"/>

<path id="Designs_mlp422_019_ext_ponyville_pool_closeup_ref_RD_Mouth_front_chin__16_Layer1_0_1_STROKES" stroke="#6DABDD" stroke-width="3" stroke-linejoin="round" stroke-linecap="round" fill="none" d="
M 33.65 6.85
Q 26.5 14.95 18.05 19.95 9.85 24.45 1.5 24.2 -7.55 23.85 -15.9 19.5 -16.75 19.05 -17.6 18.55 -26.25 13.6 -34.65 3.45"/>
</defs>

<g transform="matrix( 3.156494140625, 0, 0, 3.156494140625, 266.45,439.6) ">
<mask id="Mask_Mask_1">
<g transform="matrix( 1, 0, 0, 1, 0,0) ">
<use xlink:href="#Mask_Designs_mlp422_019_ext_ponyville_pool_closeup_ref__RD_Character_194_14_MASK_0_FILL"/>
</g>
</mask>

<g mask="url(#Mask_Mask_1)">
<g transform="matrix( 0.700592041015625, 0, 0, 1, -8.05,146.5) ">
<g transform="matrix( 1.1522064208984375, 0, 0, 1.7481689453125, 4.4,-262.5) ">
<use filter="url(#Filter_1)" xlink:href="#Designs_mlp422_019_ext_ponyville_pool_closeup_ref_RD_Shadow_0_Layer0_0_FILL"/>
</g>
</g>
</g>

<g mask="url(#Mask_Mask_1)">
<g transform="matrix( 0.998382568359375, -0.0028839111328125, 0.0028839111328125, 0.998382568359375, 25.3,24.45) ">
<g transform="matrix( 1, 0, 0, 1, 0,0) ">
<use xlink:href="#Designs_mlp422_019_ext_ponyville_pool_closeup_ref_RD_Wing_front_12_Layer0_0_FILL"/>
</g>
</g>
</g>

<g mask="url(#Mask_Mask_1)">
<g transform="matrix( -0.9839324951171875, 0.1470489501953125, 0.1470489501953125, 0.9839324951171875, -10.75,-30.55) ">
<g transform="matrix( 1, 0, 0, 1, 0,0) ">
<use xlink:href="#Designs_mlp422_019_ext_ponyville_pool_closeup_ref_RD_Tail_1_Layer1_0_FILL"/>
</g>
</g>
</g>

<g mask="url(#Mask_Mask_1)">
<g transform="matrix( 1, 0, -0.065216064453125, 1, 1.2,-0.2) ">
<g transform="matrix( 1, 0, 0, 1, 17.6,127.9) ">
<g transform="matrix( 1, 0, 0, 1, 0,0) ">
<use filter="url(#Filter_2)" xlink:href="#Designs_mlp422_019_ext_ponyville_pool_closeup_ref_RD_FrontLeg_3_4_hoof_4_Layer0_0_FILL"/>

<use filter="url(#Filter_2)" xlink:href="#Designs_mlp422_019_ext_ponyville_pool_closeup_ref_RD_FrontLeg_3_4_hoof_4_Layer0_0_1_STROKES"/>
</g>
</g>

<g transform="matrix( 1, 0, 0, 1, 5.05,57.05) ">
<g transform="matrix( 1, 0, 0, 1, 0,0) ">
<use filter="url(#Filter_2)" xlink:href="#Designs_mlp422_019_ext_ponyville_pool_closeup_ref_RD_KneePatch_1_Layer0_0_FILL"/>
</g>
</g>

<g transform="matrix( 1, 0, 0, 1, 8.7,62.65) ">
<g transform="matrix( 1, 0, 0, 1, 0,0) ">
<use filter="url(#Filter_2)" xlink:href="#Designs_mlp422_019_ext_ponyville_pool_closeup_ref_RD_HindLeg_3_4rear_lower_0_Layer1_0_FILL"/>

<use filter="url(#Filter_2)" xlink:href="#Designs_mlp422_019_ext_ponyville_pool_closeup_ref_RD_HindLeg_3_4rear_lower_0_Layer1_0_1_STROKES"/>
</g>

<g transform="matrix( 1, 0, 0, 1, 0,0) ">
<use filter="url(#Filter_2)" xlink:href="#Designs_mlp422_019_ext_ponyville_pool_closeup_ref_RD_HindLeg_3_4rear_lower_0_Layer0_0_FILL"/>

<use filter="url(#Filter_2)" xlink:href="#Designs_mlp422_019_ext_ponyville_pool_closeup_ref_RD_HindLeg_3_4rear_lower_0_Layer0_0_1_STROKES"/>
</g>
</g>

<g transform="matrix( 1, 0, -0.0095977783203125, 1.0159912109375, 5.95,-9.8) ">
<g transform="matrix( 1, 0, 0, 1, 0,0) ">
<use filter="url(#Filter_2)" xlink:href="#Designs_mlp422_019_ext_ponyville_pool_closeup_ref_RD_HindLeg_3_4_top_3_Layer1_0_FILL"/>
</g>

<g transform="matrix( 1, 0, 0, 1, 0,0) ">
<use filter="url(#Filter_2)" xlink:href="#Designs_mlp422_019_ext_ponyville_pool_closeup_ref_RD_HindLeg_3_4_top_3_Layer0_0_FILL"/>
</g>
</g>

<g transform="matrix( 1, 0, 0, 1, 5.05,57.05) ">
<g transform="matrix( 1, 0, 0, 1, 0,0) ">
<use filter="url(#Filter_2)" xlink:href="#Designs_mlp422_019_ext_ponyville_pool_closeup_ref_RD_KneePatch_0_Layer0_0_FILL"/>
</g>
</g>
</g>
</g>

<g mask="url(#Mask_Mask_1)">
<g transform="matrix( -1, 0, 0, 1, -14.15,0.8) ">
<g transform="matrix( 1, 0, 0, 1, 17.6,127.9) ">
<g transform="matrix( 1, 0, 0, 1, 0,0) ">
<use filter="url(#Filter_2)" xlink:href="#Designs_mlp422_019_ext_ponyville_pool_closeup_ref_RD_FrontLeg_3_4_hoof_4_Layer0_0_FILL"/>

<use filter="url(#Filter_2)" xlink:href="#Designs_mlp422_019_ext_ponyville_pool_closeup_ref_RD_FrontLeg_3_4_hoof_4_Layer0_0_1_STROKES"/>
</g>
</g>

<g transform="matrix( 1, 0, 0, 1, 5.05,57.05) ">
<g transform="matrix( 1, 0, 0, 1, 0,0) ">
<use filter="url(#Filter_2)" xlink:href="#Designs_mlp422_019_ext_ponyville_pool_closeup_ref_RD_KneePatch_1_Layer0_0_FILL"/>
</g>
</g>

<g transform="matrix( 1, 0, 0, 1, 8.7,62.65) ">
<g transform="matrix( 1, 0, 0, 1, 0,0) ">
<use filter="url(#Filter_2)" xlink:href="#Designs_mlp422_019_ext_ponyville_pool_closeup_ref_RD_HindLeg_3_4rear_lower_0_Layer1_0_FILL"/>

<use filter="url(#Filter_2)" xlink:href="#Designs_mlp422_019_ext_ponyville_pool_closeup_ref_RD_HindLeg_3_4rear_lower_0_Layer1_0_1_STROKES"/>
</g>

<g transform="matrix( 1, 0, 0, 1, 0,0) ">
<use filter="url(#Filter_2)" xlink:href="#Designs_mlp422_019_ext_ponyville_pool_closeup_ref_RD_HindLeg_3_4rear_lower_0_Layer0_0_FILL"/>

<use filter="url(#Filter_2)" xlink:href="#Designs_mlp422_019_ext_ponyville_pool_closeup_ref_RD_HindLeg_3_4rear_lower_0_Layer0_0_1_STROKES"/>
</g>
</g>

<g transform="matrix( 1, 0, -0.0095977783203125, 1.0159912109375, 5.95,-9.8) ">
<g transform="matrix( 1, 0, 0, 1, 0,0) ">
<use filter="url(#Filter_2)" xlink:href="#Designs_mlp422_019_ext_ponyville_pool_closeup_ref_RD_HindLeg_3_4_top_3_Layer1_0_FILL"/>
</g>

<g transform="matrix( 1, 0, 0, 1, 0,0) ">
<use filter="url(#Filter_2)" xlink:href="#Designs_mlp422_019_ext_ponyville_pool_closeup_ref_RD_HindLeg_3_4_top_3_Layer0_0_FILL"/>
</g>
</g>

<g transform="matrix( 1, 0, 0, 1, 5.05,57.05) ">
<g transform="matrix( 1, 0, 0, 1, 0,0) ">
<use filter="url(#Filter_2)" xlink:href="#Designs_mlp422_019_ext_ponyville_pool_closeup_ref_RD_KneePatch_0_Layer0_0_FILL"/>
</g>
</g>
</g>
</g>

<g mask="url(#Mask_Mask_1)">
<g transform="matrix( -0.998382568359375, -0.0028839111328125, -0.0028839111328125, 0.998382568359375, -25.25,24.05) ">
<g transform="matrix( 1, 0, 0, 1, 0,0) ">
<use xlink:href="#Designs_mlp422_019_ext_ponyville_pool_closeup_ref_RD_Wing_front_12_Layer0_0_FILL"/>
</g>
</g>
</g>

<g mask="url(#Mask_Mask_1)">
<g transform="matrix( 1, 0, 0, 1, -1.8,24.8) ">
<g transform="matrix( 1, 0, 0, 1, 0,0) ">
<use xlink:href="#Designs_mlp422_019_ext_ponyville_pool_closeup_ref_RD_Torso_0_Layer0_0_FILL"/>
</g>
</g>
</g>

<g mask="url(#Mask_Mask_1)">
<g transform="matrix( 1, 0, 0, 1, -5.65,-11.6) ">
<g transform="matrix( 1, 0, 0, 1, 0,0) ">
<use xlink:href="#Designs_mlp422_019_ext_ponyville_pool_closeup_ref_RD_Neck_0_Layer0_0_FILL"/>
</g>
</g>
</g>

<g mask="url(#Mask_Mask_1)">
<g transform="matrix( 1, 0, 0.0000152587890625, 1, -13.65,47.5) ">
<g transform="matrix( 1, 0, 0, 1, -6.55,91.15) ">
<g transform="matrix( 1, 0, 0, 1, 0,0) ">
<use xlink:href="#Designs_mlp422_019_ext_ponyville_pool_closeup_ref_RD_FrontLeg_3_4_hoof_10_Layer0_0_FILL"/>
</g>
</g>

<g transform="matrix( 0.999969482421875, -0.0043792724609375, -0.001129150390625, 1, 0.3,0.35) ">
<g transform="matrix( 1, 0, 0, 1, 0,0) ">
<use xlink:href="#Designs_mlp422_019_ext_ponyville_pool_closeup_ref_RD_FrontLeg_3_4_upper_9_Layer0_0_FILL"/>
</g>
</g>
</g>
</g>

<g mask="url(#Mask_Mask_1)">
<g transform="matrix( -1, 0, 0, 1, 10.35,46.2) ">
<g transform="matrix( 1, 0, 0, 1, -6.55,91.15) ">
<g transform="matrix( 1, 0, 0, 1, 0,0) ">
<use xlink:href="#Designs_mlp422_019_ext_ponyville_pool_closeup_ref_RD_FrontLeg_3_4_hoof_10_Layer0_0_FILL"/>
</g>
</g>

<g transform="matrix( 0.999969482421875, -0.0043792724609375, -0.001129150390625, 1, 0.3,0.35) ">
<g transform="matrix( 1, 0, 0, 1, 0,0) ">
<use xlink:href="#Designs_mlp422_019_ext_ponyville_pool_closeup_ref_RD_FrontLeg_3_4_upper_9_Layer0_0_FILL"/>
</g>
</g>
</g>
</g>

<g mask="url(#Mask_Mask_1)">
<g transform="matrix( 1, 0, 0, 1, -1.7,48.35) ">
<g transform="matrix( 1, 0, 0, 1, 0,0) ">
<use xlink:href="#Designs_mlp422_019_ext_ponyville_pool_closeup_ref_RD_Chest_1_Layer0_0_FILL"/>
</g>
</g>
</g>

<g mask="url(#Mask_Mask_1)">
<g transform="matrix( 1, 0, 0, 1, 20.4,-52.25) ">
<g transform="matrix( 1, 0, 0, 1, 0,0) ">
<use xlink:href="#Designs_mlp422_019_ext_ponyville_pool_closeup_ref_RD_Mane_0_Layer3_0_FILL"/>
</g>
</g>
</g>

<g mask="url(#Mask_Mask_1)">
<g transform="matrix( 1, 0, 0, 1, -7,-48.85) ">
<g transform="matrix( 1.294891357421875, 0.1927032470703125, -0.1472015380859375, 0.989105224609375, 43.6,-88.95) ">
<g transform="matrix( 1, 0, 0, 1, 0,0) ">
<use xlink:href="#Designs_mlp422_019_ext_ponyville_pool_closeup_ref_RD_Mane_0_Layer3_0_FILL"/>
</g>
</g>

<g transform="matrix( 1, 0, 0, 1, 0.25,-12.1) ">
<g transform="matrix( 1, 0, 0, 1, 0,0) ">
<use xlink:href="#Designs_mlp422_019_ext_ponyville_pool_closeup_ref_RD_Skull_2_Layer0_0_FILL"/>
</g>
</g>

<g transform="matrix( 1, 0, 0, 1, 33.5,-58.85) ">
<g transform="matrix( 1, 0, 0, 1, 0,0) ">
<use xlink:href="#Designs_mlp422_019_ext_ponyville_pool_closeup_ref_RD_Hair_07_0_Layer0_0_FILL"/>
</g>
</g>

<g transform="matrix( -0.9976959228515625, 0.0611114501953125, 0.044891357421875, 0.93096923828125, -2.95,3.9) ">
<g transform="matrix( 1, 0, 0, 1, 0,0) ">
<use xlink:href="#Designs_mlp422_019_ext_ponyville_pool_closeup_ref_PTS_Ear_1_Layer0_0_FILL"/>
</g>
</g>

<g transform="matrix( 0.9810638427734375, 0.1737823486328125, -0.1362152099609375, 0.8248748779296875, 4.15,-2.1) ">
<g transform="matrix( 1, 0, 0, 1, 0,0) ">
<use xlink:href="#Designs_mlp422_019_ext_ponyville_pool_closeup_ref_PTS_Ear_1_Layer0_0_FILL"/>
</g>
</g>

<mask id="Mask_Mask_2">
<g transform="matrix( -0.7280120849609375, -0.1036224365234375, -0.148193359375, 1.0270233154296875, -25.15,-6.15) ">
<g transform="matrix( 1, 0, 0, 1, 0,0) ">
<use xlink:href="#Mask_Mask_Designs_mlp422_019_ext_ponyville_pool_closeup_ref_RD_EyeWhite_front_0_Layer1_0_FILL"/>
</g>
</g>
</mask>

<g mask="url(#Mask_Mask_2)">
<g transform="matrix( -0.7280120849609375, -0.1036224365234375, -0.148193359375, 1.0270233154296875, -25.15,-6.15) ">
<g transform="matrix( 1, 0, 0, 1, 0,0) ">
<use xlink:href="#Designs_mlp422_019_ext_ponyville_pool_closeup_ref_RD_EyeWhite_front_0_Layer1_0_FILL"/>
</g>
</g>
</g>

<g mask="url(#Mask_Mask_2)">
<g transform="matrix( 0.7164459228515625, 0, 0.080596923828125, 0.9562835693359375, -24.05,-0.95) ">
<g transform="matrix( 1, 0, 0, 1, 0,0) ">
<use xlink:href="#Designs_mlp422_019_ext_ponyville_pool_closeup_ref_RD_Iris_0_Layer3_0_FILL"/>
</g>

<g transform="matrix( 1, 0, 0, 1, 0,0) ">
<use xlink:href="#Designs_mlp422_019_ext_ponyville_pool_closeup_ref_RD_Iris_0_Layer2_0_FILL"/>
</g>

<g transform="matrix( 1, 0, 0, 1, 0,0) ">
<use xlink:href="#Designs_mlp422_019_ext_ponyville_pool_closeup_ref_RD_Iris_0_Layer1_0_FILL"/>
</g>
</g>
</g>

<g mask="url(#Mask_Mask_2)">
<g transform="matrix( -0.8856201171875, 0, -0.1232452392578125, 0.9916534423828125, -22.4,2.2) ">
<g transform="matrix( 1, 0, 0, 1, 0,0) ">
<use xlink:href="#Designs_mlp422_019_ext_ponyville_pool_closeup_ref_RD_Pupil_0_Layer0_0_FILL"/>
</g>
</g>
</g>

<g mask="url(#Mask_Mask_2)">
<g transform="matrix( 1.0221405029296875, 0.2608795166015625, 0.041839599609375, 0.8291473388671875, -20.1,-6.35) ">
<g transform="matrix( 1, 0, 0, 1, 0,0) ">
<use xlink:href="#Designs_mlp422_019_ext_ponyville_pool_closeup_ref_RD_Hilights_0_Layer1_0_FILL"/>

<use xlink:href="#Designs_mlp422_019_ext_ponyville_pool_closeup_ref_RD_Hilights_0_Layer1_0_1_STROKES"/>

<use xlink:href="#Designs_mlp422_019_ext_ponyville_pool_closeup_ref_RD_Hilights_0_Layer1_0_2_STROKES"/>
</g>
</g>
</g>

<mask id="Mask_Mask_3">
<g transform="matrix( 0.71356201171875, 0, 0.092376708984375, 1.0557708740234375, 29.1,-5.15) ">
<g transform="matrix( 1, 0, 0, 1, 0,0) ">
<use xlink:href="#Mask_Mask_Designs_mlp422_019_ext_ponyville_pool_closeup_ref_RD_EyeWhite_front_0_Layer1_0_FILL"/>
</g>
</g>
</mask>

<g mask="url(#Mask_Mask_3)">
<g transform="matrix( 0.71356201171875, 0, 0.092376708984375, 1.0557708740234375, 29.1,-5.15) ">
<g transform="matrix( 1, 0, 0, 1, 0,0) ">
<use xlink:href="#Designs_mlp422_019_ext_ponyville_pool_closeup_ref_RD_EyeWhite_front_0_Layer1_0_FILL"/>
</g>
</g>
</g>

<g mask="url(#Mask_Mask_3)">
<g transform="matrix( -0.7164459228515625, 0, -0.080596923828125, 0.9562835693359375, 27.95,-0.35) ">
<g transform="matrix( 1, 0, 0, 1, 0,0) ">
<use xlink:href="#Designs_mlp422_019_ext_ponyville_pool_closeup_ref_RD_Iris_0_Layer3_0_FILL"/>
</g>

<g transform="matrix( 1, 0, 0, 1, 0,0) ">
<use xlink:href="#Designs_mlp422_019_ext_ponyville_pool_closeup_ref_RD_Iris_0_Layer2_0_FILL"/>
</g>

<g transform="matrix( 1, 0, 0, 1, 0,0) ">
<use xlink:href="#Designs_mlp422_019_ext_ponyville_pool_closeup_ref_RD_Iris_0_Layer1_0_FILL"/>
</g>
</g>
</g>

<g mask="url(#Mask_Mask_3)">
<g transform="matrix( 0.8856201171875, 0, 0.1232452392578125, 0.9916534423828125, 25.85,3.15) ">
<g transform="matrix( 1, 0, 0, 1, 0,0) ">
<use xlink:href="#Designs_mlp422_019_ext_ponyville_pool_closeup_ref_RD_Pupil_0_Layer0_0_FILL"/>
</g>
</g>
</g>

<g mask="url(#Mask_Mask_3)">
<g transform="matrix( 1.0791473388671875, 0.33831787109375, 0.041046142578125, 0.8131103515625, 30.25,-6.45) ">
<g transform="matrix( 1, 0, 0, 1, 0,0) ">
<use xlink:href="#Designs_mlp422_019_ext_ponyville_pool_closeup_ref_RD_Hilights_0_Layer1_0_FILL"/>

<use xlink:href="#Designs_mlp422_019_ext_ponyville_pool_closeup_ref_RD_Hilights_0_Layer1_0_1_STROKES"/>

<use xlink:href="#Designs_mlp422_019_ext_ponyville_pool_closeup_ref_RD_Hilights_0_Layer1_0_2_STROKES"/>
</g>
</g>
</g>

<g transform="matrix( -0.7280120849609375, -0.1036224365234375, -0.148193359375, 1.0270233154296875, -25.15,-6.15) ">
<g transform="matrix( 1, 0, 0, 1, 0,0) ">
<use xlink:href="#Designs_mlp422_019_ext_ponyville_pool_closeup_ref_RD_Blink_front__0_Layer2_0_FILL"/>
</g>

<g transform="matrix( 1.2691650390625, 0.546173095703125, -0.1686553955078125, 0.9423980712890625, -3.85,-8.1) ">
<use xlink:href="#Designs_mlp422_019_ext_ponyville_pool_closeup_ref_RD_Blink_front__0_Layer1_0_FILL"/>
</g>

<g transform="matrix( 1.2578582763671875, 0.451202392578125, -0.417633056640625, 0.876251220703125, -6.9,-6.9) ">
<use xlink:href="#Designs_mlp422_019_ext_ponyville_pool_closeup_ref_RD_Blink_front__0_Layer1_1_FILL"/>
</g>

<g transform="matrix( 1.2490234375, 0.4617156982421875, -0.5565338134765625, 0.82635498046875, -10.55,-6.95) ">
<use xlink:href="#Designs_mlp422_019_ext_ponyville_pool_closeup_ref_RD_Blink_front__0_Layer1_2_FILL"/>
</g>
</g>

<g transform="matrix( 0.7280120849609375, -0.1036224365234375, 0.148193359375, 1.0270233154296875, 28.9,-5.05) ">
<g transform="matrix( 1, 0, 0, 1, 0,0) ">
<use xlink:href="#Designs_mlp422_019_ext_ponyville_pool_closeup_ref_RD_Blink_front__0_Layer2_0_FILL"/>
</g>

<g transform="matrix( 1.2691650390625, 0.546173095703125, -0.1686553955078125, 0.9423980712890625, -3.85,-8.1) ">
<use xlink:href="#Designs_mlp422_019_ext_ponyville_pool_closeup_ref_RD_Blink_front__0_Layer1_0_FILL"/>
</g>

<g transform="matrix( 1.2578582763671875, 0.451202392578125, -0.417633056640625, 0.876251220703125, -6.9,-6.9) ">
<use xlink:href="#Designs_mlp422_019_ext_ponyville_pool_closeup_ref_RD_Blink_front__0_Layer1_1_FILL"/>
</g>

<g transform="matrix( 1.2490234375, 0.4617156982421875, -0.5565338134765625, 0.82635498046875, -10.55,-6.95) ">
<use xlink:href="#Designs_mlp422_019_ext_ponyville_pool_closeup_ref_RD_Blink_front__0_Layer1_2_FILL"/>
</g>
</g>

<g transform="matrix( 0.9999847412109375, 0, -0.0000152587890625, 0.9999847412109375, 0.4,18.8) ">
<g transform="matrix( 1, 0, 0, 1, 0,0) ">
<use xlink:href="#Designs_mlp422_019_ext_ponyville_pool_closeup_ref_RD_Mouth_front_chin__16_Layer1_0_FILL"/>

<use xlink:href="#Designs_mlp422_019_ext_ponyville_pool_closeup_ref_RD_Mouth_front_chin__16_Layer1_0_1_STROKES"/>
</g>
</g>

<g transform="matrix( 0.9999847412109375, 0, -0.0000152587890625, 0.9999847412109375, 0.4,18.8) ">
<g transform="matrix( 1, 0, 0, 1, 0,0) ">
<use xlink:href="#Designs_mlp422_019_ext_ponyville_pool_closeup_ref_RD_Mouth_front_hole__16_Layer6_0_FILL"/>
</g>

<g transform="matrix( 0.46160888671875, 0.483642578125, 0.620697021484375, -0.5924835205078125, -6.6,13) ">
<g transform="matrix( 1, 0, 0, 1, 0,0) ">
<use filter="url(#Filter_3)" xlink:href="#Designs_mlp422_019_ext_ponyville_pool_closeup_ref_RD_Wrinkle_0_Layer0_0_FILL"/>
</g>
</g>

<g transform="matrix( -0.342254638671875, 0.3814544677734375, -0.63861083984375, -0.5730438232421875, 6.5,14.1) ">
<g transform="matrix( 1, 0, 0, 1, 0,0) ">
<use filter="url(#Filter_3)" xlink:href="#Designs_mlp422_019_ext_ponyville_pool_closeup_ref_RD_Wrinkle_0_Layer0_0_FILL"/>
</g>
</g>

<g transform="matrix( 1, 0, 0, 1, 0,0) ">
<use xlink:href="#Designs_mlp422_019_ext_ponyville_pool_closeup_ref_RD_Mouth_front_hole__16_Layer4_0_FILL"/>
</g>
</g>

<g transform="matrix( 0.9999847412109375, 0, -0.0000152587890625, 0.9999847412109375, 0.4,18.8) ">
<g transform="matrix( 1.028717041015625, 0, 0, 1, 0.65,-9) ">
<g transform="matrix( 1, 0, 0, 1, 0,0) ">
<use xlink:href="#Designs_mlp422_019_ext_ponyville_pool_closeup_ref_RD_Wrinkle_0_Layer0_0_FILL"/>
</g>
</g>
</g>

<g transform="matrix( 0.9999847412109375, 0, -0.0000152587890625, 0.9999847412109375, 0.4,18.8) ">
<g transform="matrix( 1.028717041015625, 0, 0, 1, 0.2,0.15) ">
<g transform="matrix( 1, 0, 0, 1, 0,0) ">
<use xlink:href="#Designs_mlp422_019_ext_ponyville_pool_closeup_ref_RD_Nostril_front_0_Layer0_0_FILL"/>
</g>
</g>
</g>

<g transform="matrix( 0.9266357421875, 0.001312255859375, 0, 1, -2.2,-40.4) ">
<g transform="matrix( 1, 0, 0, 1, 0,0) ">
<use xlink:href="#Designs_mlp422_019_ext_ponyville_pool_closeup_ref_RD_Hair_01_0_Layer1_0_FILL"/>
</g>
</g>

<g transform="matrix( 0.9266357421875, 0.001312255859375, 0, 1, -2.3,-40.4) ">
<g transform="matrix( 1, 0, 0, 1, 0,0) ">
<use xlink:href="#Designs_mlp422_019_ext_ponyville_pool_closeup_ref_RD_Hair_01_1_Layer0_0_FILL"/>
</g>
</g>
</g>
</g>
</g>
</svg>
